<svg width="21" height="24" viewBox="0 0 21 24" fill="none" xmlns="http://www.w3.org/2000/svg">
<path d="M20.9877 22.9976L19.4438 6.73365C19.4017 6.2895 19.0081 5.94929 18.5368 5.94929H15.3529V4.59098C15.3529 2.05952 13.1757 0 10.4996 0C7.82367 0 5.64676 2.05952 5.64676 4.59098V5.94929H2.46068C1.98931 5.94929 1.59577 6.2895 1.55363 6.73365L0.00364141 23.0616C-0.0191865 23.3026 0.0660539 23.5414 0.238599 23.7199C0.411144 23.8983 0.655087 24 0.910687 24H20.0869C20.0876 24 20.0886 24 20.0893 24C20.5924 24 21 23.6143 21 23.1386C20.9999 23.0907 20.9958 23.0435 20.9877 22.9976ZM7.46813 4.59098C7.46813 3.0095 8.82809 1.72287 10.4998 1.72287C12.1715 1.72287 13.5316 3.0095 13.5316 4.59098V5.94929H7.46813V4.59098ZM1.90686 22.2772L3.29329 7.67216H5.64676V9.21263C5.64676 9.68837 6.05438 10.0741 6.55744 10.0741C7.06051 10.0741 7.46813 9.68837 7.46813 9.21263V7.67216H13.5316V9.21263C13.5316 9.68837 13.9392 10.0741 14.4423 10.0741C14.9454 10.0741 15.353 9.68837 15.353 9.21263V7.67216H17.7043L19.0907 22.2772H1.90686Z" fill="white"/>
</svg>
