<svg width="32" height="32" viewBox="0 0 32 32" fill="none" xmlns="http://www.w3.org/2000/svg">
<path fill-rule="evenodd" clip-rule="evenodd" d="M7.30149 6.42353C5.03806 7.39597 3.37989 9.70895 3.37989 12.4671C3.37989 15.2849 4.60672 17.4569 6.36545 19.3182C7.81498 20.8524 9.56968 22.1238 11.281 23.3638C11.6874 23.6583 12.0914 23.9511 12.4883 24.2452C13.206 24.7769 13.8462 25.2436 14.4633 25.5826C15.0807 25.9217 15.5776 26.0765 16 26.0765C16.4224 26.0765 16.9194 25.9217 17.5368 25.5826C18.1539 25.2436 18.7941 24.7769 19.5118 24.2452C19.9087 23.9511 20.3127 23.6583 20.7191 23.3638C22.4304 22.1238 24.1851 20.8524 25.6346 19.3182C27.3934 17.4569 28.6202 15.2849 28.6202 12.4671C28.6202 9.70895 26.962 7.39597 24.6986 6.42353C22.4997 5.47881 19.5451 5.72899 16.7373 8.47085C16.5444 8.65922 16.2782 8.76566 16 8.76566C15.7219 8.76566 15.4557 8.65922 15.2628 8.47085C12.455 5.72899 9.50041 5.47881 7.30149 6.42353ZM16 6.46793C12.8456 3.81531 9.31335 3.44423 6.45069 4.67412C3.42725 5.97308 1.33337 8.9893 1.33337 12.4671C1.33337 15.8852 2.84847 18.4928 4.83525 20.5955C6.42629 22.2794 8.37368 23.6887 10.0936 24.9334C10.4834 25.2155 10.8616 25.4892 11.2213 25.7557C11.9202 26.2736 12.6704 26.8257 13.4307 27.2433C14.1907 27.6607 15.0581 28 16 28C16.942 28 17.8094 27.6607 18.5693 27.2433C19.3297 26.8257 20.0799 26.2736 20.7788 25.7557C21.1384 25.4892 21.5166 25.2155 21.9065 24.9334C23.6264 23.6887 25.5738 22.2794 27.1648 20.5955C29.1516 18.4928 30.6667 15.8852 30.6667 12.4671C30.6667 8.9893 28.5728 5.97308 25.5494 4.67412C22.6867 3.44423 19.1545 3.81531 16 6.46793Z" fill="#1B1919"/>
</svg>
