<svg width="17" height="21" viewBox="0 0 17 21" fill="none" xmlns="http://www.w3.org/2000/svg">
<path d="M15.4918 16.8318L14.4625 5.9891C14.4345 5.693 14.1721 5.46619 13.8578 5.46619H11.7353V4.56065C11.7353 2.87301 10.2838 1.5 8.49976 1.5C6.71578 1.5 5.2645 2.87301 5.2645 4.56065V5.46619H3.14045C2.82621 5.46619 2.56385 5.693 2.53576 5.9891L1.50243 16.8744C1.48721 17.0351 1.54404 17.1942 1.65907 17.3132C1.7741 17.4322 1.93672 17.5 2.10712 17.5H14.8913C14.8917 17.5 14.8924 17.5 14.8929 17.5C15.2283 17.5 15.5 17.2429 15.5 16.9257C15.4999 16.8938 15.4972 16.8623 15.4918 16.8318ZM6.47876 4.56065C6.47876 3.50634 7.3854 2.64858 8.49984 2.64858C9.61436 2.64858 10.5211 3.50634 10.5211 4.56065V5.46619H6.47876V4.56065ZM2.77124 16.3515L3.69553 6.61477H5.2645V7.64175C5.2645 7.95891 5.53625 8.21604 5.87163 8.21604C6.20701 8.21604 6.47876 7.95891 6.47876 7.64175V6.61477H10.5211V7.64175C10.5211 7.95891 10.7928 8.21604 11.1282 8.21604C11.4636 8.21604 11.7353 7.95891 11.7353 7.64175V6.61477H13.3029L14.2271 16.3515H2.77124Z" fill="#1B1919"/>
<path d="M15.4918 16.8318L15.342 16.846L15.3441 16.8576L15.4918 16.8318ZM14.4625 5.9891L14.3132 6.00327L14.3132 6.00328L14.4625 5.9891ZM11.7353 5.46619H11.5853V5.61619H11.7353V5.46619ZM5.2645 5.46619V5.61619H5.4145V5.46619H5.2645ZM2.53576 5.9891L2.68508 6.00328L2.68509 6.00327L2.53576 5.9891ZM1.50243 16.8744L1.3531 16.8602L1.3531 16.8603L1.50243 16.8744ZM15.5 16.9257H15.65L15.65 16.9253L15.5 16.9257ZM10.5211 5.46619V5.61619H10.6711V5.46619H10.5211ZM6.47876 5.46619H6.32876V5.61619H6.47876V5.46619ZM2.77124 16.3515L2.62191 16.3373C2.61792 16.3794 2.63185 16.4212 2.66028 16.4524C2.6887 16.4837 2.72899 16.5015 2.77124 16.5015V16.3515ZM3.69553 6.61477V6.46477H3.55909L3.5462 6.6006L3.69553 6.61477ZM5.2645 6.61477H5.4145V6.46477H5.2645V6.61477ZM6.47876 6.61477V6.46477H6.32876V6.61477H6.47876ZM10.5211 6.61477H10.6711V6.46477H10.5211V6.61477ZM11.7353 6.61477V6.46477H11.5853V6.61477H11.7353ZM13.3029 6.61477L13.4522 6.6006L13.4393 6.46477H13.3029V6.61477ZM14.2271 16.3515V16.5015H14.3921L14.3765 16.3373L14.2271 16.3515ZM15.6412 16.8176L14.6119 5.97493L14.3132 6.00328L15.3425 16.8459L15.6412 16.8176ZM14.6119 5.97494C14.5758 5.59515 14.2426 5.31619 13.8578 5.31619V5.61619C14.1016 5.61619 14.2931 5.79085 14.3132 6.00327L14.6119 5.97494ZM13.8578 5.31619H11.7353V5.61619H13.8578V5.31619ZM11.8853 5.46619V4.56065H11.5853V5.46619H11.8853ZM11.8853 4.56065C11.8853 2.78243 10.3587 1.35 8.49976 1.35V1.65C10.2089 1.65 11.5853 2.9636 11.5853 4.56065H11.8853ZM8.49976 1.35C6.64088 1.35 5.1145 2.78244 5.1145 4.56065H5.4145C5.4145 2.96358 6.79067 1.65 8.49976 1.65V1.35ZM5.1145 4.56065V5.46619H5.4145V4.56065H5.1145ZM5.2645 5.31619H3.14045V5.61619H5.2645V5.31619ZM3.14045 5.31619C2.75575 5.31619 2.42245 5.59515 2.38643 5.97494L2.68509 6.00327C2.70524 5.79085 2.89666 5.61619 3.14045 5.61619V5.31619ZM2.38643 5.97493L1.3531 16.8602L1.65176 16.8886L2.68508 6.00328L2.38643 5.97493ZM1.3531 16.8603C1.33362 17.0658 1.40663 17.2679 1.55122 17.4175L1.76691 17.209C1.68144 17.1206 1.64079 17.0043 1.65176 16.8886L1.3531 16.8603ZM1.55122 17.4175C1.69545 17.5667 1.89743 17.65 2.10712 17.65V17.35C1.97602 17.35 1.85274 17.2978 1.76691 17.209L1.55122 17.4175ZM2.10712 17.65H14.8913V17.35H2.10712V17.65ZM14.8913 17.65C14.8913 17.65 14.8913 17.65 14.8913 17.65C14.8913 17.65 14.8913 17.65 14.8913 17.65C14.8913 17.65 14.8913 17.65 14.8913 17.65C14.8913 17.65 14.8913 17.65 14.8913 17.65C14.8913 17.65 14.8913 17.65 14.8913 17.65C14.8913 17.65 14.8913 17.65 14.8913 17.65C14.8913 17.65 14.8913 17.65 14.8913 17.65C14.8913 17.65 14.8913 17.65 14.8913 17.65C14.8913 17.65 14.8913 17.65 14.8913 17.65C14.8913 17.65 14.8913 17.65 14.8913 17.65C14.8913 17.65 14.8913 17.65 14.8913 17.65C14.8913 17.65 14.8913 17.65 14.8913 17.65C14.8913 17.65 14.8913 17.65 14.8913 17.65C14.8913 17.65 14.8913 17.65 14.8913 17.65C14.8913 17.65 14.8913 17.65 14.8913 17.65C14.8913 17.65 14.8913 17.65 14.8913 17.65C14.8913 17.65 14.8913 17.65 14.8913 17.65C14.8913 17.65 14.8913 17.65 14.8913 17.65C14.8913 17.65 14.8913 17.65 14.8913 17.65C14.8913 17.65 14.8913 17.65 14.8913 17.65C14.8913 17.65 14.8913 17.65 14.8913 17.65C14.8913 17.65 14.8913 17.65 14.8913 17.65C14.8913 17.65 14.8913 17.65 14.8913 17.65C14.8913 17.65 14.8913 17.65 14.8913 17.65C14.8913 17.65 14.8913 17.65 14.8913 17.65C14.8913 17.65 14.8913 17.65 14.8913 17.65C14.8913 17.65 14.8913 17.65 14.8913 17.65C14.8913 17.65 14.8913 17.65 14.8913 17.65C14.8913 17.65 14.8913 17.65 14.8913 17.65C14.8913 17.65 14.8913 17.65 14.8913 17.65C14.8913 17.65 14.8913 17.65 14.8913 17.65C14.8913 17.65 14.8913 17.65 14.8913 17.65C14.8913 17.65 14.8913 17.65 14.8914 17.65C14.8914 17.65 14.8914 17.65 14.8914 17.65C14.8914 17.65 14.8914 17.65 14.8914 17.65C14.8914 17.65 14.8914 17.65 14.8914 17.65C14.8914 17.65 14.8914 17.65 14.8914 17.65C14.8914 17.65 14.8914 17.65 14.8914 17.65C14.8914 17.65 14.8914 17.65 14.8914 17.65C14.8914 17.65 14.8914 17.65 14.8914 17.65C14.8914 17.65 14.8914 17.65 14.8914 17.65C14.8914 17.65 14.8914 17.65 14.8914 17.65C14.8914 17.65 14.8914 17.65 14.8914 17.65C14.8914 17.65 14.8914 17.65 14.8914 17.65C14.8914 17.65 14.8914 17.65 14.8914 17.65C14.8914 17.65 14.8914 17.65 14.8914 17.65C14.8914 17.65 14.8914 17.65 14.8914 17.65C14.8914 17.65 14.8914 17.65 14.8914 17.65C14.8914 17.65 14.8914 17.65 14.8914 17.65C14.8914 17.65 14.8914 17.65 14.8914 17.65C14.8914 17.65 14.8914 17.65 14.8914 17.65C14.8914 17.65 14.8914 17.65 14.8914 17.65C14.8914 17.65 14.8914 17.65 14.8914 17.65C14.8914 17.65 14.8914 17.65 14.8914 17.65C14.8914 17.65 14.8914 17.65 14.8914 17.65C14.8914 17.65 14.8914 17.65 14.8914 17.65C14.8914 17.65 14.8914 17.65 14.8914 17.65C14.8914 17.65 14.8914 17.65 14.8914 17.65C14.8914 17.65 14.8914 17.65 14.8914 17.65C14.8914 17.65 14.8914 17.65 14.8914 17.65C14.8914 17.65 14.8914 17.65 14.8914 17.65C14.8914 17.65 14.8914 17.65 14.8914 17.65C14.8914 17.65 14.8914 17.65 14.8914 17.65C14.8914 17.65 14.8914 17.65 14.8914 17.65C14.8914 17.65 14.8914 17.65 14.8914 17.65C14.8914 17.65 14.8914 17.65 14.8914 17.65C14.8915 17.65 14.8915 17.65 14.8915 17.65C14.8915 17.65 14.8915 17.65 14.8915 17.65C14.8915 17.65 14.8915 17.65 14.8915 17.65C14.8915 17.65 14.8915 17.65 14.8915 17.65C14.8915 17.65 14.8915 17.65 14.8915 17.65C14.8915 17.65 14.8915 17.65 14.8915 17.65C14.8915 17.65 14.8915 17.65 14.8915 17.65C14.8915 17.65 14.8915 17.65 14.8915 17.65C14.8915 17.65 14.8915 17.65 14.8915 17.65C14.8915 17.65 14.8915 17.65 14.8915 17.65C14.8915 17.65 14.8915 17.65 14.8915 17.65C14.8915 17.65 14.8915 17.65 14.8915 17.65C14.8915 17.65 14.8915 17.65 14.8915 17.65C14.8915 17.65 14.8915 17.65 14.8915 17.65C14.8915 17.65 14.8915 17.65 14.8915 17.65C14.8915 17.65 14.8915 17.65 14.8915 17.65C14.8915 17.65 14.8915 17.65 14.8915 17.65C14.8915 17.65 14.8915 17.65 14.8915 17.65C14.8915 17.65 14.8915 17.65 14.8915 17.65C14.8915 17.65 14.8915 17.65 14.8915 17.65C14.8915 17.65 14.8915 17.65 14.8915 17.65C14.8915 17.65 14.8915 17.65 14.8915 17.65C14.8915 17.65 14.8915 17.65 14.8915 17.65C14.8915 17.65 14.8915 17.65 14.8915 17.65C14.8915 17.65 14.8915 17.65 14.8915 17.65C14.8915 17.65 14.8915 17.65 14.8915 17.65C14.8915 17.65 14.8915 17.65 14.8915 17.65C14.8915 17.65 14.8915 17.65 14.8915 17.65C14.8915 17.65 14.8915 17.65 14.8915 17.65C14.8915 17.65 14.8915 17.65 14.8915 17.65C14.8915 17.65 14.8915 17.65 14.8915 17.65C14.8915 17.65 14.8915 17.65 14.8916 17.65C14.8916 17.65 14.8916 17.65 14.8916 17.65C14.8916 17.65 14.8916 17.65 14.8916 17.65C14.8916 17.65 14.8916 17.65 14.8916 17.65C14.8916 17.65 14.8916 17.65 14.8916 17.65C14.8916 17.65 14.8916 17.65 14.8916 17.65C14.8916 17.65 14.8916 17.65 14.8916 17.65C14.8916 17.65 14.8916 17.65 14.8916 17.65C14.8916 17.65 14.8916 17.65 14.8916 17.65C14.8916 17.65 14.8916 17.65 14.8916 17.65C14.8916 17.65 14.8916 17.65 14.8916 17.65C14.8916 17.65 14.8916 17.65 14.8916 17.65C14.8916 17.65 14.8916 17.65 14.8916 17.65C14.8916 17.65 14.8916 17.65 14.8916 17.65C14.8916 17.65 14.8916 17.65 14.8916 17.65C14.8916 17.65 14.8916 17.65 14.8916 17.65C14.8916 17.65 14.8916 17.65 14.8916 17.65C14.8916 17.65 14.8916 17.65 14.8916 17.65C14.8916 17.65 14.8916 17.65 14.8916 17.65C14.8916 17.65 14.8916 17.65 14.8916 17.65C14.8916 17.65 14.8916 17.65 14.8916 17.65C14.8916 17.65 14.8916 17.65 14.8916 17.65C14.8916 17.65 14.8916 17.65 14.8916 17.65C14.8916 17.65 14.8916 17.65 14.8916 17.65C14.8916 17.65 14.8916 17.65 14.8916 17.65C14.8916 17.65 14.8916 17.65 14.8916 17.65C14.8916 17.65 14.8916 17.65 14.8916 17.65C14.8916 17.65 14.8916 17.65 14.8916 17.65C14.8916 17.65 14.8916 17.65 14.8916 17.65C14.8916 17.65 14.8916 17.65 14.8916 17.65C14.8916 17.65 14.8916 17.65 14.8916 17.65C14.8916 17.65 14.8916 17.65 14.8916 17.65C14.8916 17.65 14.8917 17.65 14.8917 17.65C14.8917 17.65 14.8917 17.65 14.8917 17.65C14.8917 17.65 14.8917 17.65 14.8917 17.65C14.8917 17.65 14.8917 17.65 14.8917 17.65C14.8917 17.65 14.8917 17.65 14.8917 17.65C14.8917 17.65 14.8917 17.65 14.8917 17.65C14.8917 17.65 14.8917 17.65 14.8917 17.65C14.8917 17.65 14.8917 17.65 14.8917 17.65C14.8917 17.65 14.8917 17.65 14.8917 17.65C14.8917 17.65 14.8917 17.65 14.8917 17.65C14.8917 17.65 14.8917 17.65 14.8917 17.65C14.8917 17.65 14.8917 17.65 14.8917 17.65C14.8917 17.65 14.8917 17.65 14.8917 17.65C14.8917 17.65 14.8917 17.65 14.8917 17.65C14.8917 17.65 14.8917 17.65 14.8917 17.65C14.8917 17.65 14.8917 17.65 14.8917 17.65C14.8917 17.65 14.8917 17.65 14.8917 17.65C14.8917 17.65 14.8917 17.65 14.8917 17.65C14.8917 17.65 14.8917 17.65 14.8917 17.65C14.8917 17.65 14.8917 17.65 14.8917 17.65C14.8917 17.65 14.8917 17.65 14.8917 17.65C14.8917 17.65 14.8917 17.65 14.8917 17.65C14.8917 17.65 14.8917 17.65 14.8917 17.65C14.8917 17.65 14.8917 17.65 14.8917 17.65C14.8917 17.65 14.8917 17.65 14.8917 17.65C14.8917 17.65 14.8917 17.65 14.8917 17.65C14.8917 17.65 14.8917 17.65 14.8917 17.65C14.8917 17.65 14.8917 17.65 14.8917 17.65C14.8917 17.65 14.8917 17.65 14.8917 17.65C14.8917 17.65 14.8917 17.65 14.8917 17.65C14.8917 17.65 14.8917 17.65 14.8917 17.65C14.8917 17.65 14.8918 17.65 14.8918 17.65C14.8918 17.65 14.8918 17.65 14.8918 17.65C14.8918 17.65 14.8918 17.65 14.8918 17.65C14.8918 17.65 14.8918 17.65 14.8918 17.65C14.8918 17.65 14.8918 17.65 14.8918 17.65C14.8918 17.65 14.8918 17.65 14.8918 17.65C14.8918 17.65 14.8918 17.65 14.8918 17.65C14.8918 17.65 14.8918 17.65 14.8918 17.65C14.8918 17.65 14.8918 17.65 14.8918 17.65C14.8918 17.65 14.8918 17.65 14.8918 17.65C14.8918 17.65 14.8918 17.65 14.8918 17.65C14.8918 17.65 14.8918 17.65 14.8918 17.65C14.8918 17.65 14.8918 17.65 14.8918 17.65C14.8918 17.65 14.8918 17.65 14.8918 17.65C14.8918 17.65 14.8918 17.65 14.8918 17.65C14.8918 17.65 14.8918 17.65 14.8918 17.65C14.8918 17.65 14.8918 17.65 14.8918 17.65C14.8918 17.65 14.8918 17.65 14.8918 17.65C14.8918 17.65 14.8918 17.65 14.8918 17.65C14.8918 17.65 14.8918 17.65 14.8918 17.65C14.8918 17.65 14.8918 17.65 14.8918 17.65C14.8918 17.65 14.8918 17.65 14.8918 17.65C14.8918 17.65 14.8918 17.65 14.8918 17.65C14.8918 17.65 14.8918 17.65 14.8918 17.65C14.8918 17.65 14.8918 17.65 14.8918 17.65C14.8918 17.65 14.8918 17.65 14.8918 17.65C14.8918 17.65 14.8918 17.65 14.8918 17.65C14.8918 17.65 14.8918 17.65 14.8918 17.65C14.8918 17.65 14.8918 17.65 14.8918 17.65C14.8918 17.65 14.8918 17.65 14.8918 17.65C14.8918 17.65 14.8918 17.65 14.8918 17.65C14.8919 17.65 14.8919 17.65 14.8919 17.65C14.8919 17.65 14.8919 17.65 14.8919 17.65C14.8919 17.65 14.8919 17.65 14.8919 17.65C14.8919 17.65 14.8919 17.65 14.8919 17.65C14.8919 17.65 14.8919 17.65 14.8919 17.65C14.8919 17.65 14.8919 17.65 14.8919 17.65C14.8919 17.65 14.8919 17.65 14.8919 17.65C14.8919 17.65 14.8919 17.65 14.8919 17.65C14.8919 17.65 14.8919 17.65 14.8919 17.65C14.8919 17.65 14.8919 17.65 14.8919 17.65C14.8919 17.65 14.8919 17.65 14.8919 17.65C14.8919 17.65 14.8919 17.65 14.8919 17.65C14.8919 17.65 14.8919 17.65 14.8919 17.65C14.8919 17.65 14.8919 17.65 14.8919 17.65C14.8919 17.65 14.8919 17.65 14.8919 17.65C14.8919 17.65 14.8919 17.65 14.8919 17.65C14.8919 17.65 14.8919 17.65 14.8919 17.65C14.8919 17.65 14.8919 17.65 14.8919 17.65C14.8919 17.65 14.8919 17.65 14.8919 17.65C14.8919 17.65 14.8919 17.65 14.8919 17.65C14.8919 17.65 14.8919 17.65 14.8919 17.65C14.8919 17.65 14.8919 17.65 14.8919 17.65C14.8919 17.65 14.8919 17.65 14.8919 17.65C14.8919 17.65 14.8919 17.65 14.8919 17.65C14.8919 17.65 14.8919 17.65 14.8919 17.65C14.8919 17.65 14.8919 17.65 14.8919 17.65C14.8919 17.65 14.8919 17.65 14.8919 17.65C14.8919 17.65 14.8919 17.65 14.8919 17.65C14.8919 17.65 14.8919 17.65 14.8919 17.65C14.8919 17.65 14.8919 17.65 14.8919 17.65C14.8919 17.65 14.892 17.65 14.892 17.65C14.892 17.65 14.892 17.65 14.892 17.65C14.892 17.65 14.892 17.65 14.892 17.65C14.892 17.65 14.892 17.65 14.892 17.65C14.892 17.65 14.892 17.65 14.892 17.65C14.892 17.65 14.892 17.65 14.892 17.65C14.892 17.65 14.892 17.65 14.892 17.65C14.892 17.65 14.892 17.65 14.892 17.65C14.892 17.65 14.892 17.65 14.892 17.65C14.892 17.65 14.892 17.65 14.892 17.65C14.892 17.65 14.892 17.65 14.892 17.65C14.892 17.65 14.892 17.65 14.892 17.65C14.892 17.65 14.892 17.65 14.892 17.65C14.892 17.65 14.892 17.65 14.892 17.65C14.892 17.65 14.892 17.65 14.892 17.65C14.892 17.65 14.892 17.65 14.892 17.65C14.892 17.65 14.892 17.65 14.892 17.65C14.892 17.65 14.892 17.65 14.892 17.65C14.892 17.65 14.892 17.65 14.892 17.65C14.892 17.65 14.892 17.65 14.892 17.65C14.892 17.65 14.892 17.65 14.892 17.65C14.892 17.65 14.892 17.65 14.892 17.65C14.892 17.65 14.892 17.65 14.892 17.65C14.892 17.65 14.892 17.65 14.892 17.65C14.892 17.65 14.892 17.65 14.892 17.65C14.892 17.65 14.892 17.65 14.892 17.65C14.892 17.65 14.892 17.65 14.892 17.65C14.892 17.65 14.892 17.65 14.892 17.65C14.892 17.65 14.892 17.65 14.892 17.65C14.892 17.65 14.892 17.65 14.892 17.65C14.892 17.65 14.8921 17.65 14.8921 17.65C14.8921 17.65 14.8921 17.65 14.8921 17.65C14.8921 17.65 14.8921 17.65 14.8921 17.65C14.8921 17.65 14.8921 17.65 14.8921 17.65C14.8921 17.65 14.8921 17.65 14.8921 17.65C14.8921 17.65 14.8921 17.65 14.8921 17.65C14.8921 17.65 14.8921 17.65 14.8921 17.65C14.8921 17.65 14.8921 17.65 14.8921 17.65C14.8921 17.65 14.8921 17.65 14.8921 17.65C14.8921 17.65 14.8921 17.65 14.8921 17.65C14.8921 17.65 14.8921 17.65 14.8921 17.65C14.8921 17.65 14.8921 17.65 14.8921 17.65C14.8921 17.65 14.8921 17.65 14.8921 17.65C14.8921 17.65 14.8921 17.65 14.8921 17.65C14.8921 17.65 14.8921 17.65 14.8921 17.65C14.8921 17.65 14.8921 17.65 14.8921 17.65C14.8921 17.65 14.8921 17.65 14.8921 17.65C14.8921 17.65 14.8921 17.65 14.8921 17.65C14.8921 17.65 14.8921 17.65 14.8921 17.65C14.8921 17.65 14.8921 17.65 14.8921 17.65C14.8921 17.65 14.8921 17.65 14.8921 17.65C14.8921 17.65 14.8921 17.65 14.8921 17.65C14.8921 17.65 14.8921 17.65 14.8921 17.65C14.8921 17.65 14.8921 17.65 14.8921 17.65C14.8921 17.65 14.8921 17.65 14.8921 17.65C14.8921 17.65 14.8921 17.65 14.8921 17.65C14.8921 17.65 14.8921 17.65 14.8921 17.65C14.8921 17.65 14.8921 17.65 14.8921 17.65C14.8921 17.65 14.8921 17.65 14.8921 17.65C14.8921 17.65 14.8921 17.65 14.8921 17.65C14.8921 17.65 14.8921 17.65 14.8922 17.65C14.8922 17.65 14.8922 17.65 14.8922 17.65C14.8922 17.65 14.8922 17.65 14.8922 17.65C14.8922 17.65 14.8922 17.65 14.8922 17.65C14.8922 17.65 14.8922 17.65 14.8922 17.65C14.8922 17.65 14.8922 17.65 14.8922 17.65C14.8922 17.65 14.8922 17.65 14.8922 17.65C14.8922 17.65 14.8922 17.65 14.8922 17.65C14.8922 17.65 14.8922 17.65 14.8922 17.65C14.8922 17.65 14.8922 17.65 14.8922 17.65C14.8922 17.65 14.8922 17.65 14.8922 17.65C14.8922 17.65 14.8922 17.65 14.8922 17.65C14.8922 17.65 14.8922 17.65 14.8922 17.65C14.8922 17.65 14.8922 17.65 14.8922 17.65C14.8922 17.65 14.8922 17.65 14.8922 17.65C14.8922 17.65 14.8922 17.65 14.8922 17.65C14.8922 17.65 14.8922 17.65 14.8922 17.65C14.8922 17.65 14.8922 17.65 14.8922 17.65C14.8922 17.65 14.8922 17.65 14.8922 17.65C14.8922 17.65 14.8922 17.65 14.8922 17.65C14.8922 17.65 14.8922 17.65 14.8922 17.65C14.8922 17.65 14.8922 17.65 14.8922 17.65C14.8922 17.65 14.8922 17.65 14.8922 17.65C14.8922 17.65 14.8922 17.65 14.8922 17.65C14.8922 17.65 14.8922 17.65 14.8922 17.65C14.8922 17.65 14.8922 17.65 14.8922 17.65C14.8922 17.65 14.8922 17.65 14.8922 17.65C14.8922 17.65 14.8922 17.65 14.8922 17.65C14.8922 17.65 14.8922 17.65 14.8922 17.65C14.8922 17.65 14.8922 17.65 14.8922 17.65C14.8922 17.65 14.8922 17.65 14.8923 17.65C14.8923 17.65 14.8923 17.65 14.8923 17.65C14.8923 17.65 14.8923 17.65 14.8923 17.65C14.8923 17.65 14.8923 17.65 14.8923 17.65C14.8923 17.65 14.8923 17.65 14.8923 17.65C14.8923 17.65 14.8923 17.65 14.8923 17.65C14.8923 17.65 14.8923 17.65 14.8923 17.65C14.8923 17.65 14.8923 17.65 14.8923 17.65C14.8923 17.65 14.8923 17.65 14.8923 17.65C14.8923 17.65 14.8923 17.65 14.8923 17.65C14.8923 17.65 14.8923 17.65 14.8923 17.65C14.8923 17.65 14.8923 17.65 14.8923 17.65C14.8923 17.65 14.8923 17.65 14.8923 17.65C14.8923 17.65 14.8923 17.65 14.8923 17.65C14.8923 17.65 14.8923 17.65 14.8923 17.65C14.8923 17.65 14.8923 17.65 14.8923 17.65C14.8923 17.65 14.8923 17.65 14.8923 17.65C14.8923 17.65 14.8923 17.65 14.8923 17.65C14.8923 17.65 14.8923 17.65 14.8923 17.65C14.8923 17.65 14.8923 17.65 14.8923 17.65C14.8923 17.65 14.8923 17.65 14.8923 17.65C14.8923 17.65 14.8923 17.65 14.8923 17.65C14.8923 17.65 14.8923 17.65 14.8923 17.65C14.8923 17.65 14.8923 17.65 14.8923 17.65C14.8923 17.65 14.8923 17.65 14.8923 17.65C14.8923 17.65 14.8923 17.65 14.8923 17.65C14.8923 17.65 14.8923 17.65 14.8923 17.65C14.8923 17.65 14.8923 17.65 14.8923 17.65C14.8923 17.65 14.8923 17.65 14.8923 17.65C14.8923 17.65 14.8923 17.65 14.8923 17.65C14.8923 17.65 14.8923 17.65 14.8923 17.65C14.8924 17.65 14.8924 17.65 14.8924 17.65C14.8924 17.65 14.8924 17.65 14.8924 17.65C14.8924 17.65 14.8924 17.65 14.8924 17.65C14.8924 17.65 14.8924 17.65 14.8924 17.65C14.8924 17.65 14.8924 17.65 14.8924 17.65C14.8924 17.65 14.8924 17.65 14.8924 17.65C14.8924 17.65 14.8924 17.65 14.8924 17.65C14.8924 17.65 14.8924 17.65 14.8924 17.65C14.8924 17.65 14.8924 17.65 14.8924 17.65C14.8924 17.65 14.8924 17.65 14.8924 17.65C14.8924 17.65 14.8924 17.65 14.8924 17.65C14.8924 17.65 14.8924 17.65 14.8924 17.65C14.8924 17.65 14.8924 17.65 14.8924 17.65C14.8924 17.65 14.8924 17.65 14.8924 17.65C14.8924 17.65 14.8924 17.65 14.8924 17.65C14.8924 17.65 14.8924 17.65 14.8924 17.65C14.8924 17.65 14.8924 17.65 14.8924 17.65C14.8924 17.65 14.8924 17.65 14.8924 17.65C14.8924 17.65 14.8924 17.65 14.8924 17.65C14.8924 17.65 14.8924 17.65 14.8924 17.65C14.8924 17.65 14.8924 17.65 14.8924 17.65C14.8924 17.65 14.8924 17.65 14.8924 17.65C14.8924 17.65 14.8924 17.65 14.8924 17.65C14.8924 17.65 14.8924 17.65 14.8924 17.65C14.8924 17.65 14.8924 17.65 14.8924 17.65C14.8924 17.65 14.8924 17.65 14.8924 17.65C14.8924 17.65 14.8924 17.65 14.8924 17.65C14.8924 17.65 14.8924 17.65 14.8924 17.65C14.8924 17.65 14.8924 17.65 14.8924 17.65C14.8924 17.65 14.8924 17.65 14.8924 17.65C14.8924 17.65 14.8924 17.65 14.8924 17.65C14.8925 17.65 14.8925 17.65 14.8925 17.65C14.8925 17.65 14.8925 17.65 14.8925 17.65C14.8925 17.65 14.8925 17.65 14.8925 17.65C14.8925 17.65 14.8925 17.65 14.8925 17.65C14.8925 17.65 14.8925 17.65 14.8925 17.65C14.8925 17.65 14.8925 17.65 14.8925 17.65C14.8925 17.65 14.8925 17.65 14.8925 17.65C14.8925 17.65 14.8925 17.65 14.8925 17.65C14.8925 17.65 14.8925 17.65 14.8925 17.65C14.8925 17.65 14.8925 17.65 14.8925 17.65C14.8925 17.65 14.8925 17.65 14.8925 17.65C14.8925 17.65 14.8925 17.65 14.8925 17.65C14.8925 17.65 14.8925 17.65 14.8925 17.65C14.8925 17.65 14.8925 17.65 14.8925 17.65C14.8925 17.65 14.8925 17.65 14.8925 17.65C14.8925 17.65 14.8925 17.65 14.8925 17.65C14.8925 17.65 14.8925 17.65 14.8925 17.65C14.8925 17.65 14.8925 17.65 14.8925 17.65C14.8925 17.65 14.8925 17.65 14.8925 17.65C14.8925 17.65 14.8925 17.65 14.8925 17.65C14.8925 17.65 14.8925 17.65 14.8925 17.65C14.8925 17.65 14.8925 17.65 14.8925 17.65C14.8925 17.65 14.8925 17.65 14.8925 17.65C14.8925 17.65 14.8925 17.65 14.8925 17.65C14.8925 17.65 14.8925 17.65 14.8925 17.65C14.8925 17.65 14.8925 17.65 14.8925 17.65C14.8925 17.65 14.8925 17.65 14.8925 17.65C14.8925 17.65 14.8925 17.65 14.8925 17.65C14.8925 17.65 14.8925 17.65 14.8925 17.65C14.8925 17.65 14.8925 17.65 14.8925 17.65C14.8925 17.65 14.8925 17.65 14.8925 17.65C14.8925 17.65 14.8926 17.65 14.8926 17.65C14.8926 17.65 14.8926 17.65 14.8926 17.65C14.8926 17.65 14.8926 17.65 14.8926 17.65C14.8926 17.65 14.8926 17.65 14.8926 17.65C14.8926 17.65 14.8926 17.65 14.8926 17.65C14.8926 17.65 14.8926 17.65 14.8926 17.65C14.8926 17.65 14.8926 17.65 14.8926 17.65C14.8926 17.65 14.8926 17.65 14.8926 17.65C14.8926 17.65 14.8926 17.65 14.8926 17.65C14.8926 17.65 14.8926 17.65 14.8926 17.65C14.8926 17.65 14.8926 17.65 14.8926 17.65C14.8926 17.65 14.8926 17.65 14.8926 17.65C14.8926 17.65 14.8926 17.65 14.8926 17.65C14.8926 17.65 14.8926 17.65 14.8926 17.65C14.8926 17.65 14.8926 17.65 14.8926 17.65C14.8926 17.65 14.8926 17.65 14.8926 17.65C14.8926 17.65 14.8926 17.65 14.8926 17.65C14.8926 17.65 14.8926 17.65 14.8926 17.65C14.8926 17.65 14.8926 17.65 14.8926 17.65C14.8926 17.65 14.8926 17.65 14.8926 17.65C14.8926 17.65 14.8926 17.65 14.8926 17.65C14.8926 17.65 14.8926 17.65 14.8926 17.65C14.8926 17.65 14.8926 17.65 14.8926 17.65C14.8926 17.65 14.8926 17.65 14.8926 17.65C14.8926 17.65 14.8926 17.65 14.8926 17.65C14.8926 17.65 14.8926 17.65 14.8926 17.65C14.8926 17.65 14.8926 17.65 14.8926 17.65C14.8926 17.65 14.8926 17.65 14.8926 17.65C14.8926 17.65 14.8926 17.65 14.8926 17.65C14.8926 17.65 14.8926 17.65 14.8926 17.65C14.8926 17.65 14.8926 17.65 14.8926 17.65C14.8926 17.65 14.8926 17.65 14.8926 17.65C14.8926 17.65 14.8927 17.65 14.8927 17.65C14.8927 17.65 14.8927 17.65 14.8927 17.65C14.8927 17.65 14.8927 17.65 14.8927 17.65C14.8927 17.65 14.8927 17.65 14.8927 17.65C14.8927 17.65 14.8927 17.65 14.8927 17.65C14.8927 17.65 14.8927 17.65 14.8927 17.65C14.8927 17.65 14.8927 17.65 14.8927 17.65C14.8927 17.65 14.8927 17.65 14.8927 17.65C14.8927 17.65 14.8927 17.65 14.8927 17.65C14.8927 17.65 14.8927 17.65 14.8927 17.65C14.8927 17.65 14.8927 17.65 14.8927 17.65C14.8927 17.65 14.8927 17.65 14.8927 17.65C14.8927 17.65 14.8927 17.65 14.8927 17.65C14.8927 17.65 14.8927 17.65 14.8927 17.65C14.8927 17.65 14.8927 17.65 14.8927 17.65C14.8927 17.65 14.8927 17.65 14.8927 17.65C14.8927 17.65 14.8927 17.65 14.8927 17.65C14.8927 17.65 14.8927 17.65 14.8927 17.65C14.8927 17.65 14.8927 17.65 14.8927 17.65C14.8927 17.65 14.8927 17.65 14.8927 17.65C14.8927 17.65 14.8927 17.65 14.8927 17.65C14.8927 17.65 14.8927 17.65 14.8927 17.65C14.8927 17.65 14.8927 17.65 14.8927 17.65C14.8927 17.65 14.8927 17.65 14.8927 17.65C14.8927 17.65 14.8927 17.65 14.8927 17.65C14.8927 17.65 14.8927 17.65 14.8927 17.65C14.8927 17.65 14.8927 17.65 14.8927 17.65C14.8927 17.65 14.8927 17.65 14.8927 17.65C14.8927 17.65 14.8927 17.65 14.8927 17.65C14.8927 17.65 14.8927 17.65 14.8927 17.65C14.8927 17.65 14.8927 17.65 14.8927 17.65C14.8927 17.65 14.8927 17.65 14.8927 17.65C14.8927 17.65 14.8927 17.65 14.8927 17.65C14.8927 17.65 14.8928 17.65 14.8928 17.65C14.8928 17.65 14.8928 17.65 14.8928 17.65C14.8928 17.65 14.8928 17.65 14.8928 17.65C14.8928 17.65 14.8928 17.65 14.8928 17.65C14.8928 17.65 14.8928 17.65 14.8928 17.65C14.8928 17.65 14.8928 17.65 14.8928 17.65C14.8928 17.65 14.8928 17.65 14.8928 17.65C14.8928 17.65 14.8928 17.65 14.8928 17.65C14.8928 17.65 14.8928 17.65 14.8928 17.65C14.8928 17.65 14.8928 17.65 14.8928 17.65C14.8928 17.65 14.8928 17.65 14.8928 17.65C14.8928 17.65 14.8928 17.65 14.8928 17.65C14.8928 17.65 14.8928 17.65 14.8928 17.65C14.8928 17.65 14.8928 17.65 14.8928 17.65C14.8928 17.65 14.8928 17.65 14.8928 17.65C14.8928 17.65 14.8928 17.65 14.8928 17.65C14.8928 17.65 14.8928 17.65 14.8928 17.65C14.8928 17.65 14.8928 17.65 14.8928 17.65C14.8928 17.65 14.8928 17.65 14.8928 17.65C14.8928 17.65 14.8928 17.65 14.8928 17.65C14.8928 17.65 14.8928 17.65 14.8928 17.65C14.8928 17.65 14.8928 17.65 14.8928 17.65C14.8928 17.65 14.8928 17.65 14.8928 17.65C14.8928 17.65 14.8928 17.65 14.8928 17.65C14.8928 17.65 14.8928 17.65 14.8928 17.65C14.8928 17.65 14.8928 17.65 14.8928 17.65C14.8928 17.65 14.8928 17.65 14.8928 17.65C14.8928 17.65 14.8928 17.65 14.8928 17.65C14.8928 17.65 14.8928 17.65 14.8928 17.65C14.8928 17.65 14.8928 17.65 14.8928 17.65C14.8928 17.65 14.8928 17.65 14.8928 17.65C14.8928 17.65 14.8928 17.65 14.8928 17.65C14.8928 17.65 14.8928 17.65 14.8928 17.65C14.8928 17.65 14.8928 17.65 14.8928 17.65C14.8928 17.65 14.8929 17.65 14.8929 17.65C14.8929 17.65 14.8929 17.65 14.8929 17.65C14.8929 17.65 14.8929 17.65 14.8929 17.65C14.8929 17.65 14.8929 17.65 14.8929 17.65C14.8929 17.65 14.8929 17.65 14.8929 17.65C14.8929 17.65 14.8929 17.65 14.8929 17.65C14.8929 17.65 14.8929 17.65 14.8929 17.65C14.8929 17.65 14.8929 17.65 14.8929 17.65C14.8929 17.65 14.8929 17.65 14.8929 17.65V17.35C14.8929 17.35 14.8929 17.35 14.8929 17.35C14.8929 17.35 14.8929 17.35 14.8929 17.35C14.8929 17.35 14.8929 17.35 14.8929 17.35C14.8929 17.35 14.8929 17.35 14.8929 17.35C14.8929 17.35 14.8929 17.35 14.8929 17.35C14.8929 17.35 14.8929 17.35 14.8929 17.35C14.8929 17.35 14.8929 17.35 14.8929 17.35C14.8929 17.35 14.8929 17.35 14.8929 17.35C14.8929 17.35 14.8928 17.35 14.8928 17.35C14.8928 17.35 14.8928 17.35 14.8928 17.35C14.8928 17.35 14.8928 17.35 14.8928 17.35C14.8928 17.35 14.8928 17.35 14.8928 17.35C14.8928 17.35 14.8928 17.35 14.8928 17.35C14.8928 17.35 14.8928 17.35 14.8928 17.35C14.8928 17.35 14.8928 17.35 14.8928 17.35C14.8928 17.35 14.8928 17.35 14.8928 17.35C14.8928 17.35 14.8928 17.35 14.8928 17.35C14.8928 17.35 14.8928 17.35 14.8928 17.35C14.8928 17.35 14.8928 17.35 14.8928 17.35C14.8928 17.35 14.8928 17.35 14.8928 17.35C14.8928 17.35 14.8928 17.35 14.8928 17.35C14.8928 17.35 14.8928 17.35 14.8928 17.35C14.8928 17.35 14.8928 17.35 14.8928 17.35C14.8928 17.35 14.8928 17.35 14.8928 17.35C14.8928 17.35 14.8928 17.35 14.8928 17.35C14.8928 17.35 14.8928 17.35 14.8928 17.35C14.8928 17.35 14.8928 17.35 14.8928 17.35C14.8928 17.35 14.8928 17.35 14.8928 17.35C14.8928 17.35 14.8928 17.35 14.8928 17.35C14.8928 17.35 14.8928 17.35 14.8928 17.35C14.8928 17.35 14.8928 17.35 14.8928 17.35C14.8928 17.35 14.8928 17.35 14.8928 17.35C14.8928 17.35 14.8928 17.35 14.8928 17.35C14.8928 17.35 14.8928 17.35 14.8928 17.35C14.8928 17.35 14.8928 17.35 14.8928 17.35C14.8928 17.35 14.8928 17.35 14.8928 17.35C14.8928 17.35 14.8928 17.35 14.8928 17.35C14.8928 17.35 14.8928 17.35 14.8928 17.35C14.8928 17.35 14.8928 17.35 14.8928 17.35C14.8928 17.35 14.8928 17.35 14.8928 17.35C14.8928 17.35 14.8928 17.35 14.8928 17.35C14.8928 17.35 14.8928 17.35 14.8928 17.35C14.8928 17.35 14.8927 17.35 14.8927 17.35C14.8927 17.35 14.8927 17.35 14.8927 17.35C14.8927 17.35 14.8927 17.35 14.8927 17.35C14.8927 17.35 14.8927 17.35 14.8927 17.35C14.8927 17.35 14.8927 17.35 14.8927 17.35C14.8927 17.35 14.8927 17.35 14.8927 17.35C14.8927 17.35 14.8927 17.35 14.8927 17.35C14.8927 17.35 14.8927 17.35 14.8927 17.35C14.8927 17.35 14.8927 17.35 14.8927 17.35C14.8927 17.35 14.8927 17.35 14.8927 17.35C14.8927 17.35 14.8927 17.35 14.8927 17.35C14.8927 17.35 14.8927 17.35 14.8927 17.35C14.8927 17.35 14.8927 17.35 14.8927 17.35C14.8927 17.35 14.8927 17.35 14.8927 17.35C14.8927 17.35 14.8927 17.35 14.8927 17.35C14.8927 17.35 14.8927 17.35 14.8927 17.35C14.8927 17.35 14.8927 17.35 14.8927 17.35C14.8927 17.35 14.8927 17.35 14.8927 17.35C14.8927 17.35 14.8927 17.35 14.8927 17.35C14.8927 17.35 14.8927 17.35 14.8927 17.35C14.8927 17.35 14.8927 17.35 14.8927 17.35C14.8927 17.35 14.8927 17.35 14.8927 17.35C14.8927 17.35 14.8927 17.35 14.8927 17.35C14.8927 17.35 14.8927 17.35 14.8927 17.35C14.8927 17.35 14.8927 17.35 14.8927 17.35C14.8927 17.35 14.8927 17.35 14.8927 17.35C14.8927 17.35 14.8927 17.35 14.8927 17.35C14.8927 17.35 14.8927 17.35 14.8927 17.35C14.8927 17.35 14.8927 17.35 14.8927 17.35C14.8927 17.35 14.8927 17.35 14.8927 17.35C14.8927 17.35 14.8927 17.35 14.8927 17.35C14.8927 17.35 14.8927 17.35 14.8927 17.35C14.8927 17.35 14.8927 17.35 14.8927 17.35C14.8927 17.35 14.8926 17.35 14.8926 17.35C14.8926 17.35 14.8926 17.35 14.8926 17.35C14.8926 17.35 14.8926 17.35 14.8926 17.35C14.8926 17.35 14.8926 17.35 14.8926 17.35C14.8926 17.35 14.8926 17.35 14.8926 17.35C14.8926 17.35 14.8926 17.35 14.8926 17.35C14.8926 17.35 14.8926 17.35 14.8926 17.35C14.8926 17.35 14.8926 17.35 14.8926 17.35C14.8926 17.35 14.8926 17.35 14.8926 17.35C14.8926 17.35 14.8926 17.35 14.8926 17.35C14.8926 17.35 14.8926 17.35 14.8926 17.35C14.8926 17.35 14.8926 17.35 14.8926 17.35C14.8926 17.35 14.8926 17.35 14.8926 17.35C14.8926 17.35 14.8926 17.35 14.8926 17.35C14.8926 17.35 14.8926 17.35 14.8926 17.35C14.8926 17.35 14.8926 17.35 14.8926 17.35C14.8926 17.35 14.8926 17.35 14.8926 17.35C14.8926 17.35 14.8926 17.35 14.8926 17.35C14.8926 17.35 14.8926 17.35 14.8926 17.35C14.8926 17.35 14.8926 17.35 14.8926 17.35C14.8926 17.35 14.8926 17.35 14.8926 17.35C14.8926 17.35 14.8926 17.35 14.8926 17.35C14.8926 17.35 14.8926 17.35 14.8926 17.35C14.8926 17.35 14.8926 17.35 14.8926 17.35C14.8926 17.35 14.8926 17.35 14.8926 17.35C14.8926 17.35 14.8926 17.35 14.8926 17.35C14.8926 17.35 14.8926 17.35 14.8926 17.35C14.8926 17.35 14.8926 17.35 14.8926 17.35C14.8926 17.35 14.8926 17.35 14.8926 17.35C14.8926 17.35 14.8926 17.35 14.8926 17.35C14.8926 17.35 14.8926 17.35 14.8926 17.35C14.8926 17.35 14.8926 17.35 14.8926 17.35C14.8926 17.35 14.8925 17.35 14.8925 17.35C14.8925 17.35 14.8925 17.35 14.8925 17.35C14.8925 17.35 14.8925 17.35 14.8925 17.35C14.8925 17.35 14.8925 17.35 14.8925 17.35C14.8925 17.35 14.8925 17.35 14.8925 17.35C14.8925 17.35 14.8925 17.35 14.8925 17.35C14.8925 17.35 14.8925 17.35 14.8925 17.35C14.8925 17.35 14.8925 17.35 14.8925 17.35C14.8925 17.35 14.8925 17.35 14.8925 17.35C14.8925 17.35 14.8925 17.35 14.8925 17.35C14.8925 17.35 14.8925 17.35 14.8925 17.35C14.8925 17.35 14.8925 17.35 14.8925 17.35C14.8925 17.35 14.8925 17.35 14.8925 17.35C14.8925 17.35 14.8925 17.35 14.8925 17.35C14.8925 17.35 14.8925 17.35 14.8925 17.35C14.8925 17.35 14.8925 17.35 14.8925 17.35C14.8925 17.35 14.8925 17.35 14.8925 17.35C14.8925 17.35 14.8925 17.35 14.8925 17.35C14.8925 17.35 14.8925 17.35 14.8925 17.35C14.8925 17.35 14.8925 17.35 14.8925 17.35C14.8925 17.35 14.8925 17.35 14.8925 17.35C14.8925 17.35 14.8925 17.35 14.8925 17.35C14.8925 17.35 14.8925 17.35 14.8925 17.35C14.8925 17.35 14.8925 17.35 14.8925 17.35C14.8925 17.35 14.8925 17.35 14.8925 17.35C14.8925 17.35 14.8925 17.35 14.8925 17.35C14.8925 17.35 14.8925 17.35 14.8925 17.35C14.8925 17.35 14.8925 17.35 14.8925 17.35C14.8925 17.35 14.8925 17.35 14.8925 17.35C14.8925 17.35 14.8925 17.35 14.8925 17.35C14.8925 17.35 14.8925 17.35 14.8925 17.35C14.8925 17.35 14.8925 17.35 14.8924 17.35C14.8924 17.35 14.8924 17.35 14.8924 17.35C14.8924 17.35 14.8924 17.35 14.8924 17.35C14.8924 17.35 14.8924 17.35 14.8924 17.35C14.8924 17.35 14.8924 17.35 14.8924 17.35C14.8924 17.35 14.8924 17.35 14.8924 17.35C14.8924 17.35 14.8924 17.35 14.8924 17.35C14.8924 17.35 14.8924 17.35 14.8924 17.35C14.8924 17.35 14.8924 17.35 14.8924 17.35C14.8924 17.35 14.8924 17.35 14.8924 17.35C14.8924 17.35 14.8924 17.35 14.8924 17.35C14.8924 17.35 14.8924 17.35 14.8924 17.35C14.8924 17.35 14.8924 17.35 14.8924 17.35C14.8924 17.35 14.8924 17.35 14.8924 17.35C14.8924 17.35 14.8924 17.35 14.8924 17.35C14.8924 17.35 14.8924 17.35 14.8924 17.35C14.8924 17.35 14.8924 17.35 14.8924 17.35C14.8924 17.35 14.8924 17.35 14.8924 17.35C14.8924 17.35 14.8924 17.35 14.8924 17.35C14.8924 17.35 14.8924 17.35 14.8924 17.35C14.8924 17.35 14.8924 17.35 14.8924 17.35C14.8924 17.35 14.8924 17.35 14.8924 17.35C14.8924 17.35 14.8924 17.35 14.8924 17.35C14.8924 17.35 14.8924 17.35 14.8924 17.35C14.8924 17.35 14.8924 17.35 14.8924 17.35C14.8924 17.35 14.8924 17.35 14.8924 17.35C14.8924 17.35 14.8924 17.35 14.8924 17.35C14.8924 17.35 14.8924 17.35 14.8924 17.35C14.8924 17.35 14.8924 17.35 14.8924 17.35C14.8924 17.35 14.8924 17.35 14.8924 17.35C14.8924 17.35 14.8924 17.35 14.8924 17.35C14.8924 17.35 14.8924 17.35 14.8923 17.35C14.8923 17.35 14.8923 17.35 14.8923 17.35C14.8923 17.35 14.8923 17.35 14.8923 17.35C14.8923 17.35 14.8923 17.35 14.8923 17.35C14.8923 17.35 14.8923 17.35 14.8923 17.35C14.8923 17.35 14.8923 17.35 14.8923 17.35C14.8923 17.35 14.8923 17.35 14.8923 17.35C14.8923 17.35 14.8923 17.35 14.8923 17.35C14.8923 17.35 14.8923 17.35 14.8923 17.35C14.8923 17.35 14.8923 17.35 14.8923 17.35C14.8923 17.35 14.8923 17.35 14.8923 17.35C14.8923 17.35 14.8923 17.35 14.8923 17.35C14.8923 17.35 14.8923 17.35 14.8923 17.35C14.8923 17.35 14.8923 17.35 14.8923 17.35C14.8923 17.35 14.8923 17.35 14.8923 17.35C14.8923 17.35 14.8923 17.35 14.8923 17.35C14.8923 17.35 14.8923 17.35 14.8923 17.35C14.8923 17.35 14.8923 17.35 14.8923 17.35C14.8923 17.35 14.8923 17.35 14.8923 17.35C14.8923 17.35 14.8923 17.35 14.8923 17.35C14.8923 17.35 14.8923 17.35 14.8923 17.35C14.8923 17.35 14.8923 17.35 14.8923 17.35C14.8923 17.35 14.8923 17.35 14.8923 17.35C14.8923 17.35 14.8923 17.35 14.8923 17.35C14.8923 17.35 14.8923 17.35 14.8923 17.35C14.8923 17.35 14.8923 17.35 14.8923 17.35C14.8923 17.35 14.8923 17.35 14.8923 17.35C14.8923 17.35 14.8923 17.35 14.8923 17.35C14.8923 17.35 14.8923 17.35 14.8923 17.35C14.8923 17.35 14.8923 17.35 14.8923 17.35C14.8923 17.35 14.8923 17.35 14.8923 17.35C14.8922 17.35 14.8922 17.35 14.8922 17.35C14.8922 17.35 14.8922 17.35 14.8922 17.35C14.8922 17.35 14.8922 17.35 14.8922 17.35C14.8922 17.35 14.8922 17.35 14.8922 17.35C14.8922 17.35 14.8922 17.35 14.8922 17.35C14.8922 17.35 14.8922 17.35 14.8922 17.35C14.8922 17.35 14.8922 17.35 14.8922 17.35C14.8922 17.35 14.8922 17.35 14.8922 17.35C14.8922 17.35 14.8922 17.35 14.8922 17.35C14.8922 17.35 14.8922 17.35 14.8922 17.35C14.8922 17.35 14.8922 17.35 14.8922 17.35C14.8922 17.35 14.8922 17.35 14.8922 17.35C14.8922 17.35 14.8922 17.35 14.8922 17.35C14.8922 17.35 14.8922 17.35 14.8922 17.35C14.8922 17.35 14.8922 17.35 14.8922 17.35C14.8922 17.35 14.8922 17.35 14.8922 17.35C14.8922 17.35 14.8922 17.35 14.8922 17.35C14.8922 17.35 14.8922 17.35 14.8922 17.35C14.8922 17.35 14.8922 17.35 14.8922 17.35C14.8922 17.35 14.8922 17.35 14.8922 17.35C14.8922 17.35 14.8922 17.35 14.8922 17.35C14.8922 17.35 14.8922 17.35 14.8922 17.35C14.8922 17.35 14.8922 17.35 14.8922 17.35C14.8922 17.35 14.8922 17.35 14.8922 17.35C14.8922 17.35 14.8922 17.35 14.8922 17.35C14.8922 17.35 14.8922 17.35 14.8922 17.35C14.8922 17.35 14.8922 17.35 14.8922 17.35C14.8922 17.35 14.8922 17.35 14.8922 17.35C14.8922 17.35 14.8922 17.35 14.8922 17.35C14.8922 17.35 14.8922 17.35 14.8922 17.35C14.8921 17.35 14.8921 17.35 14.8921 17.35C14.8921 17.35 14.8921 17.35 14.8921 17.35C14.8921 17.35 14.8921 17.35 14.8921 17.35C14.8921 17.35 14.8921 17.35 14.8921 17.35C14.8921 17.35 14.8921 17.35 14.8921 17.35C14.8921 17.35 14.8921 17.35 14.8921 17.35C14.8921 17.35 14.8921 17.35 14.8921 17.35C14.8921 17.35 14.8921 17.35 14.8921 17.35C14.8921 17.35 14.8921 17.35 14.8921 17.35C14.8921 17.35 14.8921 17.35 14.8921 17.35C14.8921 17.35 14.8921 17.35 14.8921 17.35C14.8921 17.35 14.8921 17.35 14.8921 17.35C14.8921 17.35 14.8921 17.35 14.8921 17.35C14.8921 17.35 14.8921 17.35 14.8921 17.35C14.8921 17.35 14.8921 17.35 14.8921 17.35C14.8921 17.35 14.8921 17.35 14.8921 17.35C14.8921 17.35 14.8921 17.35 14.8921 17.35C14.8921 17.35 14.8921 17.35 14.8921 17.35C14.8921 17.35 14.8921 17.35 14.8921 17.35C14.8921 17.35 14.8921 17.35 14.8921 17.35C14.8921 17.35 14.8921 17.35 14.8921 17.35C14.8921 17.35 14.8921 17.35 14.8921 17.35C14.8921 17.35 14.8921 17.35 14.8921 17.35C14.8921 17.35 14.8921 17.35 14.8921 17.35C14.8921 17.35 14.8921 17.35 14.8921 17.35C14.8921 17.35 14.8921 17.35 14.8921 17.35C14.8921 17.35 14.8921 17.35 14.8921 17.35C14.8921 17.35 14.8921 17.35 14.8921 17.35C14.8921 17.35 14.8921 17.35 14.8921 17.35C14.8921 17.35 14.8921 17.35 14.8921 17.35C14.8921 17.35 14.892 17.35 14.892 17.35C14.892 17.35 14.892 17.35 14.892 17.35C14.892 17.35 14.892 17.35 14.892 17.35C14.892 17.35 14.892 17.35 14.892 17.35C14.892 17.35 14.892 17.35 14.892 17.35C14.892 17.35 14.892 17.35 14.892 17.35C14.892 17.35 14.892 17.35 14.892 17.35C14.892 17.35 14.892 17.35 14.892 17.35C14.892 17.35 14.892 17.35 14.892 17.35C14.892 17.35 14.892 17.35 14.892 17.35C14.892 17.35 14.892 17.35 14.892 17.35C14.892 17.35 14.892 17.35 14.892 17.35C14.892 17.35 14.892 17.35 14.892 17.35C14.892 17.35 14.892 17.35 14.892 17.35C14.892 17.35 14.892 17.35 14.892 17.35C14.892 17.35 14.892 17.35 14.892 17.35C14.892 17.35 14.892 17.35 14.892 17.35C14.892 17.35 14.892 17.35 14.892 17.35C14.892 17.35 14.892 17.35 14.892 17.35C14.892 17.35 14.892 17.35 14.892 17.35C14.892 17.35 14.892 17.35 14.892 17.35C14.892 17.35 14.892 17.35 14.892 17.35C14.892 17.35 14.892 17.35 14.892 17.35C14.892 17.35 14.892 17.35 14.892 17.35C14.892 17.35 14.892 17.35 14.892 17.35C14.892 17.35 14.892 17.35 14.892 17.35C14.892 17.35 14.892 17.35 14.892 17.35C14.892 17.35 14.892 17.35 14.892 17.35C14.892 17.35 14.892 17.35 14.892 17.35C14.892 17.35 14.892 17.35 14.892 17.35C14.892 17.35 14.8919 17.35 14.8919 17.35C14.8919 17.35 14.8919 17.35 14.8919 17.35C14.8919 17.35 14.8919 17.35 14.8919 17.35C14.8919 17.35 14.8919 17.35 14.8919 17.35C14.8919 17.35 14.8919 17.35 14.8919 17.35C14.8919 17.35 14.8919 17.35 14.8919 17.35C14.8919 17.35 14.8919 17.35 14.8919 17.35C14.8919 17.35 14.8919 17.35 14.8919 17.35C14.8919 17.35 14.8919 17.35 14.8919 17.35C14.8919 17.35 14.8919 17.35 14.8919 17.35C14.8919 17.35 14.8919 17.35 14.8919 17.35C14.8919 17.35 14.8919 17.35 14.8919 17.35C14.8919 17.35 14.8919 17.35 14.8919 17.35C14.8919 17.35 14.8919 17.35 14.8919 17.35C14.8919 17.35 14.8919 17.35 14.8919 17.35C14.8919 17.35 14.8919 17.35 14.8919 17.35C14.8919 17.35 14.8919 17.35 14.8919 17.35C14.8919 17.35 14.8919 17.35 14.8919 17.35C14.8919 17.35 14.8919 17.35 14.8919 17.35C14.8919 17.35 14.8919 17.35 14.8919 17.35C14.8919 17.35 14.8919 17.35 14.8919 17.35C14.8919 17.35 14.8919 17.35 14.8919 17.35C14.8919 17.35 14.8919 17.35 14.8919 17.35C14.8919 17.35 14.8919 17.35 14.8919 17.35C14.8919 17.35 14.8919 17.35 14.8919 17.35C14.8919 17.35 14.8919 17.35 14.8919 17.35C14.8919 17.35 14.8919 17.35 14.8919 17.35C14.8919 17.35 14.8919 17.35 14.8919 17.35C14.8919 17.35 14.8919 17.35 14.8919 17.35C14.8919 17.35 14.8919 17.35 14.8919 17.35C14.8919 17.35 14.8919 17.35 14.8918 17.35C14.8918 17.35 14.8918 17.35 14.8918 17.35C14.8918 17.35 14.8918 17.35 14.8918 17.35C14.8918 17.35 14.8918 17.35 14.8918 17.35C14.8918 17.35 14.8918 17.35 14.8918 17.35C14.8918 17.35 14.8918 17.35 14.8918 17.35C14.8918 17.35 14.8918 17.35 14.8918 17.35C14.8918 17.35 14.8918 17.35 14.8918 17.35C14.8918 17.35 14.8918 17.35 14.8918 17.35C14.8918 17.35 14.8918 17.35 14.8918 17.35C14.8918 17.35 14.8918 17.35 14.8918 17.35C14.8918 17.35 14.8918 17.35 14.8918 17.35C14.8918 17.35 14.8918 17.35 14.8918 17.35C14.8918 17.35 14.8918 17.35 14.8918 17.35C14.8918 17.35 14.8918 17.35 14.8918 17.35C14.8918 17.35 14.8918 17.35 14.8918 17.35C14.8918 17.35 14.8918 17.35 14.8918 17.35C14.8918 17.35 14.8918 17.35 14.8918 17.35C14.8918 17.35 14.8918 17.35 14.8918 17.35C14.8918 17.35 14.8918 17.35 14.8918 17.35C14.8918 17.35 14.8918 17.35 14.8918 17.35C14.8918 17.35 14.8918 17.35 14.8918 17.35C14.8918 17.35 14.8918 17.35 14.8918 17.35C14.8918 17.35 14.8918 17.35 14.8918 17.35C14.8918 17.35 14.8918 17.35 14.8918 17.35C14.8918 17.35 14.8918 17.35 14.8918 17.35C14.8918 17.35 14.8918 17.35 14.8918 17.35C14.8918 17.35 14.8918 17.35 14.8918 17.35C14.8918 17.35 14.8918 17.35 14.8918 17.35C14.8918 17.35 14.8918 17.35 14.8918 17.35C14.8918 17.35 14.8918 17.35 14.8918 17.35C14.8918 17.35 14.8917 17.35 14.8917 17.35C14.8917 17.35 14.8917 17.35 14.8917 17.35C14.8917 17.35 14.8917 17.35 14.8917 17.35C14.8917 17.35 14.8917 17.35 14.8917 17.35C14.8917 17.35 14.8917 17.35 14.8917 17.35C14.8917 17.35 14.8917 17.35 14.8917 17.35C14.8917 17.35 14.8917 17.35 14.8917 17.35C14.8917 17.35 14.8917 17.35 14.8917 17.35C14.8917 17.35 14.8917 17.35 14.8917 17.35C14.8917 17.35 14.8917 17.35 14.8917 17.35C14.8917 17.35 14.8917 17.35 14.8917 17.35C14.8917 17.35 14.8917 17.35 14.8917 17.35C14.8917 17.35 14.8917 17.35 14.8917 17.35C14.8917 17.35 14.8917 17.35 14.8917 17.35C14.8917 17.35 14.8917 17.35 14.8917 17.35C14.8917 17.35 14.8917 17.35 14.8917 17.35C14.8917 17.35 14.8917 17.35 14.8917 17.35C14.8917 17.35 14.8917 17.35 14.8917 17.35C14.8917 17.35 14.8917 17.35 14.8917 17.35C14.8917 17.35 14.8917 17.35 14.8917 17.35C14.8917 17.35 14.8917 17.35 14.8917 17.35C14.8917 17.35 14.8917 17.35 14.8917 17.35C14.8917 17.35 14.8917 17.35 14.8917 17.35C14.8917 17.35 14.8917 17.35 14.8917 17.35C14.8917 17.35 14.8917 17.35 14.8917 17.35C14.8917 17.35 14.8917 17.35 14.8917 17.35C14.8917 17.35 14.8917 17.35 14.8917 17.35C14.8917 17.35 14.8917 17.35 14.8917 17.35C14.8917 17.35 14.8917 17.35 14.8917 17.35C14.8917 17.35 14.8917 17.35 14.8917 17.35C14.8917 17.35 14.8917 17.35 14.8917 17.35C14.8917 17.35 14.8916 17.35 14.8916 17.35C14.8916 17.35 14.8916 17.35 14.8916 17.35C14.8916 17.35 14.8916 17.35 14.8916 17.35C14.8916 17.35 14.8916 17.35 14.8916 17.35C14.8916 17.35 14.8916 17.35 14.8916 17.35C14.8916 17.35 14.8916 17.35 14.8916 17.35C14.8916 17.35 14.8916 17.35 14.8916 17.35C14.8916 17.35 14.8916 17.35 14.8916 17.35C14.8916 17.35 14.8916 17.35 14.8916 17.35C14.8916 17.35 14.8916 17.35 14.8916 17.35C14.8916 17.35 14.8916 17.35 14.8916 17.35C14.8916 17.35 14.8916 17.35 14.8916 17.35C14.8916 17.35 14.8916 17.35 14.8916 17.35C14.8916 17.35 14.8916 17.35 14.8916 17.35C14.8916 17.35 14.8916 17.35 14.8916 17.35C14.8916 17.35 14.8916 17.35 14.8916 17.35C14.8916 17.35 14.8916 17.35 14.8916 17.35C14.8916 17.35 14.8916 17.35 14.8916 17.35C14.8916 17.35 14.8916 17.35 14.8916 17.35C14.8916 17.35 14.8916 17.35 14.8916 17.35C14.8916 17.35 14.8916 17.35 14.8916 17.35C14.8916 17.35 14.8916 17.35 14.8916 17.35C14.8916 17.35 14.8916 17.35 14.8916 17.35C14.8916 17.35 14.8916 17.35 14.8916 17.35C14.8916 17.35 14.8916 17.35 14.8916 17.35C14.8916 17.35 14.8916 17.35 14.8916 17.35C14.8916 17.35 14.8916 17.35 14.8916 17.35C14.8916 17.35 14.8916 17.35 14.8916 17.35C14.8916 17.35 14.8916 17.35 14.8916 17.35C14.8916 17.35 14.8916 17.35 14.8916 17.35C14.8916 17.35 14.8916 17.35 14.8916 17.35C14.8916 17.35 14.8916 17.35 14.8916 17.35C14.8915 17.35 14.8915 17.35 14.8915 17.35C14.8915 17.35 14.8915 17.35 14.8915 17.35C14.8915 17.35 14.8915 17.35 14.8915 17.35C14.8915 17.35 14.8915 17.35 14.8915 17.35C14.8915 17.35 14.8915 17.35 14.8915 17.35C14.8915 17.35 14.8915 17.35 14.8915 17.35C14.8915 17.35 14.8915 17.35 14.8915 17.35C14.8915 17.35 14.8915 17.35 14.8915 17.35C14.8915 17.35 14.8915 17.35 14.8915 17.35C14.8915 17.35 14.8915 17.35 14.8915 17.35C14.8915 17.35 14.8915 17.35 14.8915 17.35C14.8915 17.35 14.8915 17.35 14.8915 17.35C14.8915 17.35 14.8915 17.35 14.8915 17.35C14.8915 17.35 14.8915 17.35 14.8915 17.35C14.8915 17.35 14.8915 17.35 14.8915 17.35C14.8915 17.35 14.8915 17.35 14.8915 17.35C14.8915 17.35 14.8915 17.35 14.8915 17.35C14.8915 17.35 14.8915 17.35 14.8915 17.35C14.8915 17.35 14.8915 17.35 14.8915 17.35C14.8915 17.35 14.8915 17.35 14.8915 17.35C14.8915 17.35 14.8915 17.35 14.8915 17.35C14.8915 17.35 14.8915 17.35 14.8915 17.35C14.8915 17.35 14.8915 17.35 14.8915 17.35C14.8915 17.35 14.8915 17.35 14.8915 17.35C14.8915 17.35 14.8915 17.35 14.8915 17.35C14.8915 17.35 14.8915 17.35 14.8915 17.35C14.8915 17.35 14.8915 17.35 14.8915 17.35C14.8915 17.35 14.8915 17.35 14.8915 17.35C14.8915 17.35 14.8915 17.35 14.8915 17.35C14.8915 17.35 14.8915 17.35 14.8915 17.35C14.8915 17.35 14.8915 17.35 14.8915 17.35C14.8915 17.35 14.8915 17.35 14.8914 17.35C14.8914 17.35 14.8914 17.35 14.8914 17.35C14.8914 17.35 14.8914 17.35 14.8914 17.35C14.8914 17.35 14.8914 17.35 14.8914 17.35C14.8914 17.35 14.8914 17.35 14.8914 17.35C14.8914 17.35 14.8914 17.35 14.8914 17.35C14.8914 17.35 14.8914 17.35 14.8914 17.35C14.8914 17.35 14.8914 17.35 14.8914 17.35C14.8914 17.35 14.8914 17.35 14.8914 17.35C14.8914 17.35 14.8914 17.35 14.8914 17.35C14.8914 17.35 14.8914 17.35 14.8914 17.35C14.8914 17.35 14.8914 17.35 14.8914 17.35C14.8914 17.35 14.8914 17.35 14.8914 17.35C14.8914 17.35 14.8914 17.35 14.8914 17.35C14.8914 17.35 14.8914 17.35 14.8914 17.35C14.8914 17.35 14.8914 17.35 14.8914 17.35C14.8914 17.35 14.8914 17.35 14.8914 17.35C14.8914 17.35 14.8914 17.35 14.8914 17.35C14.8914 17.35 14.8914 17.35 14.8914 17.35C14.8914 17.35 14.8914 17.35 14.8914 17.35C14.8914 17.35 14.8914 17.35 14.8914 17.35C14.8914 17.35 14.8914 17.35 14.8914 17.35C14.8914 17.35 14.8914 17.35 14.8914 17.35C14.8914 17.35 14.8914 17.35 14.8914 17.35C14.8914 17.35 14.8914 17.35 14.8914 17.35C14.8914 17.35 14.8914 17.35 14.8914 17.35C14.8914 17.35 14.8914 17.35 14.8914 17.35C14.8914 17.35 14.8914 17.35 14.8914 17.35C14.8914 17.35 14.8914 17.35 14.8914 17.35C14.8914 17.35 14.8914 17.35 14.8914 17.35C14.8914 17.35 14.8914 17.35 14.8914 17.35C14.8914 17.35 14.8914 17.35 14.8914 17.35C14.8914 17.35 14.8914 17.35 14.8914 17.35C14.8914 17.35 14.8914 17.35 14.8914 17.35C14.8913 17.35 14.8913 17.35 14.8913 17.35C14.8913 17.35 14.8913 17.35 14.8913 17.35C14.8913 17.35 14.8913 17.35 14.8913 17.35C14.8913 17.35 14.8913 17.35 14.8913 17.35C14.8913 17.35 14.8913 17.35 14.8913 17.35C14.8913 17.35 14.8913 17.35 14.8913 17.35C14.8913 17.35 14.8913 17.35 14.8913 17.35C14.8913 17.35 14.8913 17.35 14.8913 17.35C14.8913 17.35 14.8913 17.35 14.8913 17.35C14.8913 17.35 14.8913 17.35 14.8913 17.35C14.8913 17.35 14.8913 17.35 14.8913 17.35C14.8913 17.35 14.8913 17.35 14.8913 17.35C14.8913 17.35 14.8913 17.35 14.8913 17.35C14.8913 17.35 14.8913 17.35 14.8913 17.35C14.8913 17.35 14.8913 17.35 14.8913 17.35C14.8913 17.35 14.8913 17.35 14.8913 17.35C14.8913 17.35 14.8913 17.35 14.8913 17.35C14.8913 17.35 14.8913 17.35 14.8913 17.35C14.8913 17.35 14.8913 17.35 14.8913 17.35C14.8913 17.35 14.8913 17.35 14.8913 17.35C14.8913 17.35 14.8913 17.35 14.8913 17.35C14.8913 17.35 14.8913 17.35 14.8913 17.35C14.8913 17.35 14.8913 17.35 14.8913 17.35C14.8913 17.35 14.8913 17.35 14.8913 17.35C14.8913 17.35 14.8913 17.35 14.8913 17.35C14.8913 17.35 14.8913 17.35 14.8913 17.35C14.8913 17.35 14.8913 17.35 14.8913 17.35C14.8913 17.35 14.8913 17.35 14.8913 17.35C14.8913 17.35 14.8913 17.35 14.8913 17.35C14.8913 17.35 14.8913 17.35 14.8913 17.35C14.8913 17.35 14.8913 17.35 14.8913 17.35C14.8913 17.35 14.8913 17.35 14.8913 17.35C14.8913 17.35 14.8913 17.35 14.8913 17.35V17.65ZM14.8929 17.65C15.3031 17.65 15.65 17.3335 15.65 16.9257H15.35C15.35 17.1523 15.1534 17.35 14.8929 17.35V17.65ZM15.65 16.9253C15.6499 16.8851 15.6464 16.8451 15.6396 16.8059L15.3441 16.8576C15.3479 16.8796 15.3499 16.9025 15.35 16.9261L15.65 16.9253ZM6.62876 4.56065C6.62876 3.59691 7.4603 2.79858 8.49984 2.79858V2.49858C7.3105 2.49858 6.32876 3.41577 6.32876 4.56065H6.62876ZM8.49984 2.79858C9.53947 2.79858 10.3711 3.59692 10.3711 4.56065H10.6711C10.6711 3.41576 9.68925 2.49858 8.49984 2.49858V2.79858ZM10.3711 4.56065V5.46619H10.6711V4.56065H10.3711ZM10.5211 5.31619H6.47876V5.61619H10.5211V5.31619ZM6.62876 5.46619V4.56065H6.32876V5.46619H6.62876ZM2.92057 16.3657L3.84486 6.62895L3.5462 6.6006L2.62191 16.3373L2.92057 16.3657ZM3.69553 6.76477H5.2645V6.46477H3.69553V6.76477ZM5.1145 6.61477V7.64175H5.4145V6.61477H5.1145ZM5.1145 7.64175C5.1145 8.04949 5.46136 8.36604 5.87163 8.36604V8.06604C5.61114 8.06604 5.4145 7.86834 5.4145 7.64175H5.1145ZM5.87163 8.36604C6.28189 8.36604 6.62876 8.04949 6.62876 7.64175H6.32876C6.32876 7.86834 6.13212 8.06604 5.87163 8.06604V8.36604ZM6.62876 7.64175V6.61477H6.32876V7.64175H6.62876ZM6.47876 6.76477H10.5211V6.46477H6.47876V6.76477ZM10.3711 6.61477V7.64175H10.6711V6.61477H10.3711ZM10.3711 7.64175C10.3711 8.04949 10.7179 8.36604 11.1282 8.36604V8.06604C10.8677 8.06604 10.6711 7.86834 10.6711 7.64175H10.3711ZM11.1282 8.36604C11.5385 8.36604 11.8853 8.04949 11.8853 7.64175H11.5853C11.5853 7.86834 11.3887 8.06604 11.1282 8.06604V8.36604ZM11.8853 7.64175V6.61477H11.5853V7.64175H11.8853ZM11.7353 6.76477H13.3029V6.46477H11.7353V6.76477ZM13.1535 6.62895L14.0778 16.3657L14.3765 16.3373L13.4522 6.6006L13.1535 6.62895ZM14.2271 16.2015H2.77124V16.5015H14.2271V16.2015Z" fill="black"/>
</svg>
