<svg width="36" height="30" viewBox="0 0 36 30" fill="none" xmlns="http://www.w3.org/2000/svg">
<path opacity="0.2" d="M30.9366 15.2233L30.1761 11.3675C29.9678 10.2853 29.6085 9.45903 29.0776 8.84146C28.3931 8.04533 27.4329 7.62451 26.3008 7.62451H21.8516V2.32356C21.8516 1.59256 21.257 1 20.5234 1H2.32812C1.5946 1 1 1.59256 1 2.32356V21.0586C1 23.943 3.32694 26.2944 6.20804 26.3502C6.75556 27.8921 8.2325 29 9.96484 29C11.6963 29 13.1725 27.8934 13.7208 26.3529H21.9472C22.4954 27.8934 23.9717 29 25.7031 29C27.4345 29 28.9107 27.8934 29.4591 26.3529H33.6719C34.4054 26.3529 35 25.7603 35 25.0293V20.2645C35 17.8001 33.2579 15.7335 30.9366 15.2233ZM21.8516 10.2716H26.3008C26.7061 10.2716 27.2612 10.2716 27.5679 11.8687C27.5683 11.8709 27.5687 11.8731 27.5691 11.8753L28.2188 15.1688H21.8516V10.2716ZM9.96484 26.3529C9.23252 26.3529 8.63672 25.7591 8.63672 25.0293C8.63672 24.2995 9.23252 23.7057 9.96484 23.7057C10.6972 23.7057 11.293 24.2995 11.293 25.0293C11.293 25.7591 10.6972 26.3529 9.96484 26.3529ZM25.7031 26.3529C24.9708 26.3529 24.375 25.7591 24.375 25.0293C24.375 24.2995 24.9708 23.7057 25.7031 23.7057C26.4355 23.7057 27.0312 24.2995 27.0312 25.0293C27.0312 25.7591 26.4355 26.3529 25.7031 26.3529ZM32.3438 23.7057H29.4591C28.9108 22.1652 27.4345 21.0586 25.7031 21.0586C23.9717 21.0586 22.4955 22.1652 21.9472 23.7057H13.7208C13.1725 22.1652 11.6963 21.0586 9.96484 21.0586C8.23443 21.0586 6.75882 22.164 6.20984 23.7032C4.79259 23.6492 3.65625 22.484 3.65625 21.0586V3.64713H19.1953V15.1688H7.64062C6.9071 15.1688 6.3125 15.7613 6.3125 16.4923C6.3125 17.2233 6.9071 17.8159 7.64062 17.8159H29.7539C29.877 17.8159 29.9957 17.7979 30.1088 17.7666C31.3648 17.9099 32.3438 18.9751 32.3438 20.2645V23.7057Z" fill="#1B1919" stroke="#1B1919" stroke-width="0.5"/>
</svg>
