<svg width="28" height="28" viewBox="0 0 28 28" fill="none" xmlns="http://www.w3.org/2000/svg">
<g opacity="0.2">
<path d="M4.67052 6.22358C3.81159 6.22358 3.11256 5.52459 3.11256 4.66692C3.11256 3.80421 3.80684 3.11026 4.67519 3.11026H24.8619V0H4.67519C2.08759 0 0 2.08668 0 4.66685C0 4.74113 0.00175084 4.81504 0 4.88844V23.2863C0 25.8593 2.08744 27.9462 4.66658 27.9527L23.3255 28C25.9062 28.0065 28 25.9252 28 23.3482V6.22358H4.67052ZM24.8874 23.3482C24.8874 24.2026 24.1937 24.8921 23.3333 24.8899L4.67439 24.8426C3.80984 24.8404 3.11249 24.1433 3.11249 23.2863V9.06741C3.59981 9.23988 4.12418 9.33377 4.67045 9.33377H24.8874V23.3482Z" fill="#1B1919"/>
<path d="M21.7543 15.5931H26.5825V12.483H21.7543C19.1741 12.483 17.0804 14.5757 17.0804 17.152C17.0804 19.729 19.1779 21.821 21.7544 21.821H26.5826V18.7108H21.7544C20.8957 18.7108 20.1931 18.01 20.1931 17.152C20.193 16.2932 20.8934 15.5931 21.7543 15.5931Z" fill="#1B1919"/>
</g>
</svg>
