<svg width="26" height="30" viewBox="0 0 26 30" fill="none" xmlns="http://www.w3.org/2000/svg">
<path opacity="0.2" d="M24.3149 5.53392L13.4261 1.08361C13.1533 0.972157 12.8467 0.972103 12.5739 1.08361L1.68506 5.53392C1.27033 5.70345 1 6.10201 1 6.54405V11.954C1 19.4032 5.57383 26.1039 12.5801 28.9189C12.8492 29.027 13.1507 29.027 13.4199 28.9189C20.4261 26.1039 25 19.4032 25 11.954V6.54405C25 6.10201 24.7297 5.70345 24.3149 5.53392ZM22.7778 11.954C22.7778 18.2866 19 24.1161 13 26.7182C7.16033 24.1856 3.22222 18.4582 3.22222 11.954V7.27424L13 3.278L22.7778 7.27424V11.954ZM11.7719 15.6407L16.5477 10.9396C16.9816 10.5125 17.6851 10.5125 18.119 10.9396C18.5529 11.3668 18.5529 12.0593 18.1189 12.4864L12.5576 17.9609C12.1236 18.3881 11.4201 18.388 10.9862 17.9609L7.881 14.9042C7.44706 14.477 7.44706 13.7845 7.881 13.3574C8.31494 12.9303 9.01844 12.9302 9.45233 13.3574L11.7719 15.6407Z" fill="#1B1919" stroke="#1B1919"/>
</svg>
