<svg width="91" height="26" viewBox="0 0 91 26" fill="none" xmlns="http://www.w3.org/2000/svg">
<path d="M16.4941 0.130192H12.7726C12.3407 0.299032 11.7572 2.03763 11.5321 2.54871C10.9073 3.95419 10.1354 5.38248 9.51055 6.79252C9.23029 7.42225 8.81679 8.71365 8.40788 9.16541C8.38031 9.24298 8.39869 9.21104 8.36194 9.25667C7.42007 7.28079 6.59306 5.29578 5.69714 3.27883C5.42147 2.65366 5.11365 2.01937 4.82419 1.36227C4.67258 1.02002 4.41069 0.673217 4.3188 0.267089C3.26667 -0.0112687 1.60347 0.121065 0.321613 0.130192C0.238912 0.276215 0.128645 0.481561 0 0.586516C2.12724 5.20908 4.25907 9.8362 6.38631 14.4588V22.4444C6.38631 23.2339 6.1474 24.7854 6.75387 24.9998C6.92846 25.1094 7.41088 25.0455 7.67277 25.0455H10.0619C10.1859 24.9405 10.3054 24.831 10.4294 24.7261V14.5044C10.5535 14.112 10.8613 13.6921 11.0267 13.318C11.4632 12.3232 11.9364 11.3603 12.3591 10.3975C13.8202 7.0937 15.3731 3.87661 16.8158 0.586516C16.6825 0.486124 16.5723 0.289905 16.4941 0.130192ZM33.8612 0.130192H20.3076C20.2019 0.175824 20.0962 0.376607 19.9859 0.449618V23.494C19.9859 24.142 19.8573 24.8264 20.3535 24.9998C20.5557 25.1231 21.1162 25.0455 21.4102 25.0455H33.8153C33.921 24.9268 34.0634 24.7808 34.2288 24.7261V21.3949C34.1737 21.2762 33.9439 21.1941 33.8612 21.0755H24.0291V14.55H33.1261C33.2318 14.5044 33.3375 14.3036 33.4477 14.2306C33.4615 13.3545 33.6683 10.8264 33.0802 10.6256C32.7815 10.4431 31.0862 10.58 30.5992 10.58H24.0291V4.05458H33.8612C33.9853 3.94962 34.1048 3.84011 34.2288 3.73515V0.449618C34.1737 0.330974 33.9485 0.239709 33.8612 0.130192ZM52.0094 0.130192H38.4098C38.3041 0.175824 38.1984 0.376607 38.0882 0.449618V24.7261C38.1433 24.8356 38.373 24.9268 38.4557 25.0455H51.9175C52.0553 24.9405 52.1932 24.831 52.331 24.7261V21.3949C52.2759 21.2762 52.0508 21.185 51.9635 21.0755H42.1313V16.6035C42.1313 15.9829 42.0026 15.0748 42.1772 14.55H51.2283C51.3524 14.4953 51.4673 14.2671 51.5959 14.185V10.9451C51.5408 10.8219 51.311 10.7032 51.2283 10.58H42.1313V6.10804C42.1313 5.48744 42.0026 4.57935 42.1772 4.05458H52.0094C52.1105 4.00895 52.2024 3.84467 52.331 3.78078V0.449618C52.2851 0.344664 52.0829 0.239709 52.0094 0.130192ZM70.3873 21.0298H60.9227C62.0575 18.8714 63.1877 16.7084 64.3226 14.55H68.4576C68.5633 14.5044 68.669 14.3036 68.7792 14.2306C68.7792 13.1993 68.6414 11.9399 68.8252 10.9907C68.669 10.8903 68.5495 10.7443 68.4576 10.58H66.3901C66.5233 10.1191 66.8679 9.70387 67.0793 9.3023C67.5984 8.31208 68.0717 7.31273 68.6414 6.38183C69.1422 5.56501 69.4868 4.66605 69.9738 3.87205C70.0886 3.68496 70.1116 3.47961 70.2495 3.32446V0.449618C70.2035 0.344664 70.0014 0.239709 69.9278 0.130192H56.9255C56.8014 0.235146 56.682 0.344664 56.5579 0.449618V3.78078C56.6131 3.89943 56.8382 3.99069 56.9255 4.10021H65.4253C65.2507 4.72081 64.6947 5.52394 64.3685 6.0624C63.7299 7.10739 63.3577 8.25732 62.7145 9.3023C62.4848 9.67193 62.1356 10.1237 62.0253 10.58H57.9822C57.8719 10.6987 57.7525 10.8538 57.6147 10.9451V14.2306C57.6606 14.3356 57.8628 14.4405 57.9363 14.55H59.9119C59.7419 15.1341 59.2962 15.741 58.993 16.2384C58.4279 17.1602 58.0282 18.1641 57.4768 19.0676C57.0633 19.7384 56.7739 20.4685 56.3741 21.1211C56.2593 21.3082 56.2363 21.5135 56.0985 21.6687C56.0847 22.5174 55.8825 24.7991 56.466 24.9998C56.6682 25.1231 57.2287 25.0455 57.5228 25.0455H70.3413C70.4562 24.9223 70.594 24.8036 70.7548 24.7261V21.3493C70.7043 21.2397 70.47 21.1485 70.3873 21.0298ZM90.4651 0.540883C90.4284 0.403986 90.2492 0.299032 90.1895 0.130192H86.4679C85.912 0.682344 85.6593 1.55392 85.3193 2.32055C84.6072 3.92681 83.7342 5.55132 83.0221 7.15758C82.7832 7.69604 82.4524 8.77753 82.1032 9.16541C82.0756 9.24298 82.094 9.21104 82.0572 9.25667C81.0786 7.2169 80.123 5.10412 79.2087 3.05067C78.7768 2.08326 78.4092 1.11585 77.9222 0.221456C76.8471 -0.0477747 75.2161 0.121065 73.971 0.130192C73.9112 0.312721 73.7964 0.403986 73.7412 0.586516C73.6769 0.778172 74.0031 1.24819 74.1088 1.45353C74.5361 2.27491 74.8485 3.15106 75.2574 3.96331C75.8409 5.12238 76.2866 6.28144 76.8195 7.47701C77.4168 8.82316 78.1519 10.1921 78.7492 11.5383C79.0708 12.2593 79.4108 12.9529 79.7141 13.6374C79.8427 13.9203 79.8886 14.2397 80.0816 14.4588V22.4444C80.0816 23.2339 79.8427 24.7854 80.4492 24.9998C80.6238 25.1094 81.1062 25.0455 81.3681 25.0455H83.7113C83.8491 24.9223 83.9869 24.8036 84.1247 24.6804V14.5044C84.1707 14.331 84.3315 14.153 84.4004 14.0024C84.6899 13.3453 84.9977 12.711 85.2734 12.0859C85.9671 10.5116 86.6471 9.00113 87.3409 7.43138C88.0622 5.79774 88.8525 4.16866 89.5922 2.50308C89.7943 2.04675 90.0195 1.5813 90.2354 1.08847C90.2951 0.951575 90.5294 0.769045 90.4651 0.540883Z" fill="#1B1919"/>
<path d="M16.4941 0.130192H12.7726C12.3407 0.299032 11.7572 2.03763 11.5321 2.54871C10.9073 3.95419 10.1354 5.38248 9.51055 6.79252C9.23029 7.42225 8.81679 8.71365 8.40788 9.16541C8.38031 9.24298 8.39869 9.21104 8.36194 9.25667C7.42007 7.28079 6.59306 5.29578 5.69714 3.27883C5.42147 2.65366 5.11365 2.01937 4.82419 1.36227C4.67258 1.02002 4.41069 0.673217 4.3188 0.267089C3.26667 -0.0112687 1.60347 0.121065 0.321613 0.130192C0.238912 0.276215 0.128645 0.481561 0 0.586516C2.12724 5.20908 4.25907 9.8362 6.38631 14.4588V22.4444C6.38631 23.2339 6.1474 24.7854 6.75387 24.9998C6.92846 25.1094 7.41088 25.0455 7.67277 25.0455H10.0619C10.1859 24.9405 10.3054 24.831 10.4294 24.7261V14.5044C10.5535 14.112 10.8613 13.6921 11.0267 13.318C11.4632 12.3232 11.9364 11.3603 12.3591 10.3975C13.8202 7.0937 15.3731 3.87661 16.8158 0.586516C16.6825 0.486124 16.5723 0.289905 16.4941 0.130192ZM33.8612 0.130192H20.3076C20.2019 0.175824 20.0962 0.376607 19.9859 0.449618V23.494C19.9859 24.142 19.8573 24.8264 20.3535 24.9998C20.5557 25.1231 21.1162 25.0455 21.4102 25.0455H33.8153C33.921 24.9268 34.0634 24.7808 34.2288 24.7261V21.3949C34.1737 21.2762 33.9439 21.1941 33.8612 21.0755H24.0291V14.55H33.1261C33.2318 14.5044 33.3375 14.3036 33.4477 14.2306C33.4615 13.3545 33.6683 10.8264 33.0802 10.6256C32.7815 10.4431 31.0862 10.58 30.5992 10.58H24.0291V4.05458H33.8612C33.9853 3.94962 34.1048 3.84011 34.2288 3.73515V0.449618C34.1737 0.330974 33.9485 0.239709 33.8612 0.130192ZM52.0094 0.130192H38.4098C38.3041 0.175824 38.1984 0.376607 38.0882 0.449618V24.7261C38.1433 24.8356 38.373 24.9268 38.4557 25.0455H51.9175C52.0553 24.9405 52.1932 24.831 52.331 24.7261V21.3949C52.2759 21.2762 52.0508 21.185 51.9635 21.0755H42.1313V16.6035C42.1313 15.9829 42.0026 15.0748 42.1772 14.55H51.2283C51.3524 14.4953 51.4673 14.2671 51.5959 14.185V10.9451C51.5408 10.8219 51.311 10.7032 51.2283 10.58H42.1313V6.10804C42.1313 5.48744 42.0026 4.57935 42.1772 4.05458H52.0094C52.1105 4.00895 52.2024 3.84467 52.331 3.78078V0.449618C52.2851 0.344664 52.0829 0.239709 52.0094 0.130192ZM70.3873 21.0298H60.9227C62.0575 18.8714 63.1877 16.7084 64.3226 14.55H68.4576C68.5633 14.5044 68.669 14.3036 68.7792 14.2306C68.7792 13.1993 68.6414 11.9399 68.8252 10.9907C68.669 10.8903 68.5495 10.7443 68.4576 10.58H66.3901C66.5233 10.1191 66.8679 9.70387 67.0793 9.3023C67.5984 8.31208 68.0717 7.31273 68.6414 6.38183C69.1422 5.56501 69.4868 4.66605 69.9738 3.87205C70.0886 3.68496 70.1116 3.47961 70.2495 3.32446V0.449618C70.2035 0.344664 70.0014 0.239709 69.9278 0.130192H56.9255C56.8014 0.235146 56.682 0.344664 56.5579 0.449618V3.78078C56.6131 3.89943 56.8382 3.99069 56.9255 4.10021H65.4253C65.2507 4.72081 64.6947 5.52394 64.3685 6.0624C63.7299 7.10739 63.3577 8.25732 62.7145 9.3023C62.4848 9.67193 62.1356 10.1237 62.0253 10.58H57.9822C57.8719 10.6987 57.7525 10.8538 57.6147 10.9451V14.2306C57.6606 14.3356 57.8628 14.4405 57.9363 14.55H59.9119C59.7419 15.1341 59.2962 15.741 58.993 16.2384C58.4279 17.1602 58.0282 18.1641 57.4768 19.0676C57.0633 19.7384 56.7739 20.4685 56.3741 21.1211C56.2593 21.3082 56.2363 21.5135 56.0985 21.6687C56.0847 22.5174 55.8825 24.7991 56.466 24.9998C56.6682 25.1231 57.2287 25.0455 57.5228 25.0455H70.3413C70.4562 24.9223 70.594 24.8036 70.7548 24.7261V21.3493C70.7043 21.2397 70.47 21.1485 70.3873 21.0298ZM90.4651 0.540883C90.4284 0.403986 90.2492 0.299032 90.1895 0.130192H86.4679C85.912 0.682344 85.6593 1.55392 85.3193 2.32055C84.6072 3.92681 83.7342 5.55132 83.0221 7.15758C82.7832 7.69604 82.4524 8.77753 82.1032 9.16541C82.0756 9.24298 82.094 9.21104 82.0572 9.25667C81.0786 7.2169 80.123 5.10412 79.2087 3.05067C78.7768 2.08326 78.4092 1.11585 77.9222 0.221456C76.8471 -0.0477747 75.2161 0.121065 73.971 0.130192C73.9112 0.312721 73.7964 0.403986 73.7412 0.586516C73.6769 0.778172 74.0031 1.24819 74.1088 1.45353C74.5361 2.27491 74.8485 3.15106 75.2574 3.96331C75.8409 5.12238 76.2866 6.28144 76.8195 7.47701C77.4168 8.82316 78.1519 10.1921 78.7492 11.5383C79.0708 12.2593 79.4108 12.9529 79.7141 13.6374C79.8427 13.9203 79.8886 14.2397 80.0816 14.4588V22.4444C80.0816 23.2339 79.8427 24.7854 80.4492 24.9998C80.6238 25.1094 81.1062 25.0455 81.3681 25.0455H83.7113C83.8491 24.9223 83.9869 24.8036 84.1247 24.6804V14.5044C84.1707 14.331 84.3315 14.153 84.4004 14.0024C84.6899 13.3453 84.9977 12.711 85.2734 12.0859C85.9671 10.5116 86.6471 9.00113 87.3409 7.43138C88.0622 5.79774 88.8525 4.16866 89.5922 2.50308C89.7943 2.04675 90.0195 1.5813 90.2354 1.08847C90.2951 0.951575 90.5294 0.769045 90.4651 0.540883Z" fill="#1B1919"/>
</svg>
