<svg width="77" height="22" viewBox="0 0 77 22" fill="none" xmlns="http://www.w3.org/2000/svg">
<path d="M13.9781 0.110692H10.8243C10.4583 0.253777 9.96377 1.72716 9.77298 2.16028C9.24345 3.35137 8.58932 4.56178 8.05979 5.75673C7.82228 6.2904 7.47185 7.38481 7.12532 7.76765C7.10196 7.8334 7.11754 7.80633 7.08639 7.845C6.28819 6.17052 5.58734 4.48831 4.82809 2.77903C4.59447 2.24923 4.3336 1.71169 4.0883 1.15482C3.95981 0.864787 3.73787 0.570883 3.66 0.226707C2.76836 -0.00918978 1.35887 0.102958 0.272553 0.110692C0.202468 0.234441 0.109021 0.408463 0 0.497407C1.80275 4.41483 3.60938 8.33612 5.41213 12.2535V19.0211C5.41213 19.6901 5.20966 21.0049 5.72362 21.1867C5.87158 21.2795 6.28041 21.2253 6.50234 21.2253H8.52703C8.63215 21.1364 8.73339 21.0436 8.83851 20.9546V12.2922C8.94364 11.9596 9.20451 11.6039 9.34468 11.2868C9.71458 10.4437 10.1156 9.62775 10.4738 8.81178C11.712 6.01197 13.028 3.28562 14.2506 0.497407C14.1377 0.41233 14.0443 0.246042 13.9781 0.110692ZM28.696 0.110692H17.2098C17.1202 0.149363 17.0307 0.319518 16.9372 0.381393V19.9105C16.9372 20.4596 16.8282 21.0397 17.2487 21.1867C17.42 21.2911 17.8951 21.2253 18.1443 21.2253H28.657C28.7466 21.1248 28.8673 21.001 29.0075 20.9546V18.1316C28.9607 18.0311 28.7661 17.9615 28.696 17.8609H20.3636V12.3309H28.073C28.1625 12.2922 28.2521 12.1221 28.3455 12.0602C28.3572 11.3177 28.5324 9.1753 28.0341 9.00514C27.781 8.85046 26.3442 8.96647 25.9315 8.96647H20.3636V3.43644H28.696C28.8011 3.3475 28.9023 3.25469 29.0075 3.16574V0.381393C28.9607 0.280847 28.7699 0.203504 28.696 0.110692ZM44.0758 0.110692H32.5507C32.4611 0.149363 32.3715 0.319518 32.2781 0.381393V20.9546C32.3248 21.0475 32.5195 21.1248 32.5896 21.2253H43.9979C44.1147 21.1364 44.2315 21.0436 44.3483 20.9546V18.1316C44.3016 18.0311 44.1108 17.9537 44.0368 17.8609H35.7045V14.0711C35.7045 13.5452 35.5955 12.7756 35.7434 12.3309H43.4138C43.519 12.2845 43.6163 12.0911 43.7253 12.0215V9.27584C43.6786 9.17143 43.4839 9.07088 43.4138 8.96647H35.7045V5.17666C35.7045 4.65073 35.5955 3.88117 35.7434 3.43644H44.0758C44.1614 3.39777 44.2393 3.25855 44.3483 3.20441V0.381393C44.3094 0.292448 44.1381 0.203504 44.0758 0.110692ZM59.6502 17.8222H51.6294C52.5911 15.9931 53.5489 14.1601 54.5107 12.3309H58.0149C58.1045 12.2922 58.194 12.1221 58.2875 12.0602C58.2875 11.1862 58.1707 10.1189 58.3264 9.31452C58.194 9.22944 58.0928 9.10569 58.0149 8.96647H56.2628C56.3757 8.57589 56.6677 8.22398 56.8468 7.88367C57.2868 7.0445 57.6879 6.19759 58.1707 5.40869C58.5951 4.71647 58.8871 3.95464 59.2998 3.28176C59.3972 3.1232 59.4166 2.94918 59.5334 2.8177V0.381393C59.4945 0.292448 59.3232 0.203504 59.2609 0.110692H48.2419C48.1368 0.199636 48.0356 0.292448 47.9304 0.381393V3.20441C47.9772 3.30496 48.168 3.3823 48.2419 3.47511H55.4451C55.2972 4.00105 54.826 4.68167 54.5496 5.13799C54.0084 6.02357 53.693 6.99809 53.1479 7.88367C52.9532 8.19691 52.6573 8.57976 52.5639 8.96647H49.1375C49.044 9.06702 48.9428 9.1985 48.826 9.27584V12.0602C48.8649 12.1491 49.0362 12.2381 49.0985 12.3309H50.7728C50.6287 12.8259 50.251 13.3402 49.9941 13.7617C49.5151 14.5429 49.1764 15.3937 48.7092 16.1594C48.3587 16.7278 48.1134 17.3466 47.7747 17.8996C47.6774 18.0581 47.6579 18.2322 47.5411 18.3637C47.5294 19.0829 47.3581 21.0165 47.8526 21.1867C48.0239 21.2911 48.4989 21.2253 48.7481 21.2253H59.6113C59.7086 21.1209 59.8255 21.0204 59.9617 20.9546V18.0929C59.9189 18.0001 59.7203 17.9228 59.6502 17.8222ZM76.6654 0.458736C76.6342 0.342721 76.4824 0.253777 76.4317 0.110692H73.2779C72.8068 0.578617 72.5926 1.31724 72.3045 1.96693C71.701 3.32816 70.9612 4.70487 70.3577 6.06611C70.1552 6.52243 69.8749 7.43895 69.579 7.76765C69.5556 7.8334 69.5712 7.80633 69.54 7.845C68.7107 6.11638 67.9008 4.32589 67.126 2.58567C66.76 1.76583 66.4485 0.945997 66.0358 0.188035C65.1247 -0.040127 63.7424 0.102958 62.6873 0.110692C62.6366 0.265378 62.5393 0.342721 62.4926 0.497407C62.4381 0.659828 62.7145 1.05814 62.8041 1.23217C63.1662 1.92825 63.4309 2.67075 63.7775 3.3591C64.272 4.34136 64.6496 5.32361 65.1013 6.33681C65.6075 7.47762 66.2305 8.63776 66.7366 9.77857C67.0092 10.3896 67.2973 10.9774 67.5543 11.5575C67.6633 11.7972 67.7022 12.0679 67.8658 12.2535V19.0211C67.8658 19.6901 67.6633 21.0049 68.1773 21.1867C68.3252 21.2795 68.734 21.2253 68.956 21.2253H70.9417C71.0585 21.1209 71.1753 21.0204 71.2922 20.916V12.2922C71.3311 12.1453 71.4674 11.9945 71.5258 11.8668C71.7711 11.31 72.0319 10.7724 72.2656 10.2426C72.8535 8.90846 73.4298 7.62844 74.0177 6.29814C74.629 4.9137 75.2987 3.53312 75.9256 2.12161C76.0969 1.7349 76.2877 1.34045 76.4707 0.922794C76.5213 0.806779 76.7199 0.652093 76.6654 0.458736Z" fill="white"/>
<path d="M13.9781 0.110692H10.8243C10.4583 0.253777 9.96377 1.72716 9.77298 2.16028C9.24345 3.35137 8.58932 4.56178 8.05979 5.75673C7.82228 6.2904 7.47185 7.38481 7.12532 7.76765C7.10196 7.8334 7.11754 7.80633 7.08639 7.845C6.28819 6.17052 5.58734 4.48831 4.82809 2.77903C4.59447 2.24923 4.3336 1.71169 4.0883 1.15482C3.95981 0.864787 3.73787 0.570883 3.66 0.226707C2.76836 -0.00918978 1.35887 0.102958 0.272553 0.110692C0.202468 0.234441 0.109021 0.408463 0 0.497407C1.80275 4.41483 3.60938 8.33612 5.41213 12.2535V19.0211C5.41213 19.6901 5.20966 21.0049 5.72362 21.1867C5.87158 21.2795 6.28041 21.2253 6.50234 21.2253H8.52703C8.63215 21.1364 8.73339 21.0436 8.83851 20.9546V12.2922C8.94364 11.9596 9.20451 11.6039 9.34468 11.2868C9.71458 10.4437 10.1156 9.62775 10.4738 8.81178C11.712 6.01197 13.028 3.28562 14.2506 0.497407C14.1377 0.41233 14.0443 0.246042 13.9781 0.110692ZM28.696 0.110692H17.2098C17.1202 0.149363 17.0307 0.319518 16.9372 0.381393V19.9105C16.9372 20.4596 16.8282 21.0397 17.2487 21.1867C17.42 21.2911 17.8951 21.2253 18.1443 21.2253H28.657C28.7466 21.1248 28.8673 21.001 29.0075 20.9546V18.1316C28.9607 18.0311 28.7661 17.9615 28.696 17.8609H20.3636V12.3309H28.073C28.1625 12.2922 28.2521 12.1221 28.3455 12.0602C28.3572 11.3177 28.5324 9.1753 28.0341 9.00514C27.781 8.85046 26.3442 8.96647 25.9315 8.96647H20.3636V3.43644H28.696C28.8011 3.3475 28.9023 3.25469 29.0075 3.16574V0.381393C28.9607 0.280847 28.7699 0.203504 28.696 0.110692ZM44.0758 0.110692H32.5507C32.4611 0.149363 32.3715 0.319518 32.2781 0.381393V20.9546C32.3248 21.0475 32.5195 21.1248 32.5896 21.2253H43.9979C44.1147 21.1364 44.2315 21.0436 44.3483 20.9546V18.1316C44.3016 18.0311 44.1108 17.9537 44.0368 17.8609H35.7045V14.0711C35.7045 13.5452 35.5955 12.7756 35.7434 12.3309H43.4138C43.519 12.2845 43.6163 12.0911 43.7253 12.0215V9.27584C43.6786 9.17143 43.4839 9.07088 43.4138 8.96647H35.7045V5.17666C35.7045 4.65073 35.5955 3.88117 35.7434 3.43644H44.0758C44.1614 3.39777 44.2393 3.25855 44.3483 3.20441V0.381393C44.3094 0.292448 44.1381 0.203504 44.0758 0.110692ZM59.6502 17.8222H51.6294C52.5911 15.9931 53.5489 14.1601 54.5107 12.3309H58.0149C58.1045 12.2922 58.194 12.1221 58.2875 12.0602C58.2875 11.1862 58.1707 10.1189 58.3264 9.31452C58.194 9.22944 58.0928 9.10569 58.0149 8.96647H56.2628C56.3757 8.57589 56.6677 8.22398 56.8468 7.88367C57.2868 7.0445 57.6879 6.19759 58.1707 5.40869C58.5951 4.71647 58.8871 3.95464 59.2998 3.28176C59.3972 3.1232 59.4166 2.94918 59.5334 2.8177V0.381393C59.4945 0.292448 59.3232 0.203504 59.2609 0.110692H48.2419C48.1368 0.199636 48.0356 0.292448 47.9304 0.381393V3.20441C47.9772 3.30496 48.168 3.3823 48.2419 3.47511H55.4451C55.2972 4.00105 54.826 4.68167 54.5496 5.13799C54.0084 6.02357 53.693 6.99809 53.1479 7.88367C52.9532 8.19691 52.6573 8.57976 52.5639 8.96647H49.1375C49.044 9.06702 48.9428 9.1985 48.826 9.27584V12.0602C48.8649 12.1491 49.0362 12.2381 49.0985 12.3309H50.7728C50.6287 12.8259 50.251 13.3402 49.9941 13.7617C49.5151 14.5429 49.1764 15.3937 48.7092 16.1594C48.3587 16.7278 48.1134 17.3466 47.7747 17.8996C47.6774 18.0581 47.6579 18.2322 47.5411 18.3637C47.5294 19.0829 47.3581 21.0165 47.8526 21.1867C48.0239 21.2911 48.4989 21.2253 48.7481 21.2253H59.6113C59.7086 21.1209 59.8255 21.0204 59.9617 20.9546V18.0929C59.9189 18.0001 59.7203 17.9228 59.6502 17.8222ZM76.6654 0.458736C76.6342 0.342721 76.4824 0.253777 76.4317 0.110692H73.2779C72.8068 0.578617 72.5926 1.31724 72.3045 1.96693C71.701 3.32816 70.9612 4.70487 70.3577 6.06611C70.1552 6.52243 69.8749 7.43895 69.579 7.76765C69.5556 7.8334 69.5712 7.80633 69.54 7.845C68.7107 6.11638 67.9008 4.32589 67.126 2.58567C66.76 1.76583 66.4485 0.945997 66.0358 0.188035C65.1247 -0.040127 63.7424 0.102958 62.6873 0.110692C62.6366 0.265378 62.5393 0.342721 62.4926 0.497407C62.4381 0.659828 62.7145 1.05814 62.8041 1.23217C63.1662 1.92825 63.4309 2.67075 63.7775 3.3591C64.272 4.34136 64.6496 5.32361 65.1013 6.33681C65.6075 7.47762 66.2305 8.63776 66.7366 9.77857C67.0092 10.3896 67.2973 10.9774 67.5543 11.5575C67.6633 11.7972 67.7022 12.0679 67.8658 12.2535V19.0211C67.8658 19.6901 67.6633 21.0049 68.1773 21.1867C68.3252 21.2795 68.734 21.2253 68.956 21.2253H70.9417C71.0585 21.1209 71.1753 21.0204 71.2922 20.916V12.2922C71.3311 12.1453 71.4674 11.9945 71.5258 11.8668C71.7711 11.31 72.0319 10.7724 72.2656 10.2426C72.8535 8.90846 73.4298 7.62844 74.0177 6.29814C74.629 4.9137 75.2987 3.53312 75.9256 2.12161C76.0969 1.7349 76.2877 1.34045 76.4707 0.922794C76.5213 0.806779 76.7199 0.652093 76.6654 0.458736Z" fill="white"/>
</svg>
