<svg width="825" height="228" viewBox="0 0 825 228" fill="none" xmlns="http://www.w3.org/2000/svg">
<path opacity="0.3" d="M94.394 131.908L94.3492 132.007V132.115V224.669L91.5121 227.5H61.4049L58.5677 224.669V131.49V131.382L58.5225 131.283L0.568407 4.41356L3.08995 0.5H36.0321L38.744 1.92411L75.7677 84.2216L76.2189 85.2246L76.678 84.2252L114.487 1.91943L117.047 0.5H149.678L152.345 4.42145L94.394 131.908ZM218.81 35.574H218.31V36.074V95.8849V96.3849H218.81H301.245L304.238 99.3718V128.628L301.245 131.615H218.81H218.31V132.115V191.926V192.426H218.81H307.995L311.281 195.277V224.649L307.995 227.5H185.359L182.373 224.662V3.33791L185.359 0.5H307.995L311.281 3.35144V32.7225L307.995 35.574H218.81ZM384.092 192.426H473.277L476.563 195.277V224.649L473.277 227.5H350.641L347.654 224.662V3.33791L350.641 0.5H473.277L476.563 3.35144V32.7225L473.277 35.574H384.092H383.592V36.074V95.8849V96.3849H384.092H466.526L469.52 99.3718V128.628L466.526 131.615H384.092H383.592V132.115V191.926V192.426H384.092ZM546.841 132.35L547.233 131.615H546.4H528.607L525.614 128.628V99.6709L528.621 96.3849H565.182H565.483L565.624 96.1186L597.084 36.62L597.472 35.8863H596.642H519.353L516.066 33.0349V3.35142L519.353 0.5H636.824L639.81 3.33791V28.9224L604.495 95.651L604.107 96.3849H604.937H623.656L626.663 99.6709V128.628L623.669 131.615H586.468H586.166L586.025 131.883L554.879 191.382L554.495 192.114H555.322H641.369L644.506 194.959V224.655L641.369 227.5H514.827L511.84 224.662V197.985L546.841 132.35ZM748.761 84.2252L786.57 1.91945L789.13 0.5H821.762L824.429 4.42145L766.477 131.908L766.432 132.007V132.115V224.669L763.595 227.5H733.488L730.651 224.669V131.49V131.382L730.606 131.283L672.651 4.41356L675.173 0.5H708.115L710.827 1.92412L747.851 84.2216L748.302 85.2246L748.761 84.2252Z" stroke="white"/>
</svg>
