<svg width="13" height="13" viewBox="0 0 13 13" fill="none" xmlns="http://www.w3.org/2000/svg">
<path d="M9.88356 8.59975C9.45884 8.18045 8.92861 8.18045 8.50659 8.59975C8.18467 8.91897 7.86274 9.23818 7.54623 9.5628C7.45966 9.65207 7.38662 9.671 7.28112 9.61149C7.07281 9.49787 6.85098 9.4059 6.65079 9.28146C5.71749 8.69444 4.93567 7.93969 4.24313 7.09027C3.89956 6.66826 3.59387 6.21649 3.38015 5.70792C3.33687 5.60513 3.34499 5.5375 3.42885 5.45364C3.75077 5.14254 4.06458 4.82333 4.38109 4.50412C4.82205 4.06047 4.82205 3.54108 4.37839 3.09472C4.1268 2.84044 3.87521 2.59156 3.62363 2.33727C3.36392 2.07758 3.10692 1.81517 2.84452 1.55818C2.41979 1.14429 1.88957 1.14429 1.46755 1.56089C1.14292 1.8801 0.831815 2.20742 0.501776 2.52122C0.196083 2.81068 0.0418843 3.16506 0.00942135 3.57895C-0.0419783 4.25254 0.123042 4.88825 0.355693 5.50774C0.831815 6.78999 1.55682 7.92887 2.43602 8.97307C3.62363 10.3852 5.04117 11.5024 6.69949 12.3086C7.44614 12.671 8.21984 12.9497 9.06117 12.9957C9.64009 13.0281 10.1433 12.882 10.5463 12.4303C10.8223 12.1219 11.1334 11.8406 11.4255 11.5457C11.8584 11.1075 11.8611 10.5772 11.431 10.1444C10.917 9.62772 10.4003 9.11374 9.88356 8.59975Z" fill="white"/>
<path d="M9.36686 6.44373L10.3651 6.2733C10.2082 5.35625 9.77535 4.52576 9.11797 3.8657C8.42273 3.17047 7.54352 2.73223 6.57505 2.59697L6.43437 3.60059C7.18373 3.70609 7.86545 4.04424 8.40379 4.58257C8.91238 5.09114 9.24512 5.73497 9.36686 6.44373Z" fill="white"/>
<path d="M10.9278 2.10463C9.77535 0.952222 8.31722 0.22453 6.7076 0L6.56693 1.00362C7.95743 1.19839 9.21807 1.8287 10.2136 2.8215C11.1577 3.76561 11.7772 4.95859 12.0018 6.2706L13 6.10017C12.7376 4.57986 12.0207 3.20022 10.9278 2.10463Z" fill="white"/>
</svg>
