<svg width="9" height="12" viewBox="0 0 9 12" fill="none" xmlns="http://www.w3.org/2000/svg">
<path d="M4.5 0C2.01855 0 0 2.01879 0 4.5C0 7.81983 4.15186 11.7656 4.32863 11.9321C4.37695 11.9773 4.43848 12 4.5 12C4.56152 12 4.62305 11.9773 4.6714 11.9321C4.84814 11.7656 9 7.81983 9 4.5C9 2.01879 6.98145 0 4.5 0ZM4.5 7.00001C3.12157 7.00001 1.99999 5.87843 1.99999 4.5C1.99999 3.12157 3.12159 1.99999 4.5 1.99999C5.87841 1.99999 7.00001 3.12159 7.00001 4.5C7.00001 5.87841 5.87843 7.00001 4.5 7.00001Z" fill="white"/>
</svg>
