<svg width="29" height="29" viewBox="0 0 29 29" fill="none" xmlns="http://www.w3.org/2000/svg">
<path fill-rule="evenodd" clip-rule="evenodd" d="M2.71875 14.5C2.71875 7.99528 7.99528 2.71875 14.5 2.71875C21.0047 2.71875 26.2812 7.99528 26.2812 14.5C26.2812 21.0047 21.0047 26.2812 14.5 26.2812C7.99528 26.2812 2.71875 21.0047 2.71875 14.5ZM14.5 4.53125C8.9963 4.53125 4.53125 8.9963 4.53125 14.5C4.53125 20.0037 8.9963 24.4688 14.5 24.4688C20.0037 24.4688 24.4688 20.0037 24.4688 14.5C24.4688 8.9963 20.0037 4.53125 14.5 4.53125Z" fill="#1B1919"/>
<path fill-rule="evenodd" clip-rule="evenodd" d="M10.2342 10.2342C10.5881 9.88027 11.1619 9.88027 11.5158 10.2342L18.7658 17.4842C19.1197 17.8381 19.1197 18.4119 18.7658 18.7658C18.4119 19.1197 17.8381 19.1197 17.4842 18.7658L10.2342 11.5158C9.88027 11.1619 9.88027 10.5881 10.2342 10.2342Z" fill="#1B1919"/>
<path fill-rule="evenodd" clip-rule="evenodd" d="M18.7658 10.2342C19.1197 10.5881 19.1197 11.1619 18.7658 11.5158L11.5158 18.7658C11.1619 19.1197 10.5881 19.1197 10.2342 18.7658C9.88027 18.4119 9.88027 17.8381 10.2342 17.4842L17.4842 10.2342C17.8381 9.88027 18.4119 9.88027 18.7658 10.2342Z" fill="#1B1919"/>
</svg>
