<svg width="20" height="20" viewBox="0 0 20 20" fill="none" xmlns="http://www.w3.org/2000/svg">
<path fill-rule="evenodd" clip-rule="evenodd" d="M15.2087 5.83325C15.2087 7.55914 13.8095 8.95825 12.0837 8.95825C10.3578 8.95825 8.95866 7.55914 8.95866 5.83325C8.95866 4.10736 10.3578 2.70825 12.0837 2.70825C13.8095 2.70825 15.2087 4.10736 15.2087 5.83325ZM12.0837 7.70825C13.1192 7.70825 13.9587 6.86879 13.9587 5.83325C13.9587 4.79772 13.1192 3.95825 12.0837 3.95825C11.0481 3.95825 10.2087 4.79772 10.2087 5.83325C10.2087 6.86879 11.0481 7.70825 12.0837 7.70825Z" fill="#787A7D"/>
<path fill-rule="evenodd" clip-rule="evenodd" d="M4.79199 14.1666C4.79199 15.8925 6.1911 17.2916 7.91699 17.2916C9.64288 17.2916 11.042 15.8925 11.042 14.1666C11.042 12.4407 9.64288 11.0416 7.91699 11.0416C6.1911 11.0416 4.79199 12.4407 4.79199 14.1666ZM7.91699 16.0416C6.88146 16.0416 6.04199 15.2021 6.04199 14.1666C6.04199 13.1311 6.88146 12.2916 7.91699 12.2916C8.95253 12.2916 9.79199 13.1311 9.79199 14.1666C9.79199 15.2021 8.95253 16.0416 7.91699 16.0416Z" fill="#787A7D"/>
<path d="M11.8753 14.132C11.8753 13.7868 12.1551 13.507 12.5003 13.507H18.3337C18.6788 13.507 18.9587 13.7868 18.9587 14.132C18.9587 14.4772 18.6788 14.757 18.3337 14.757H12.5003C12.1551 14.757 11.8753 14.4772 11.8753 14.132Z" fill="#787A7D"/>
<path d="M7.50033 5.17369C7.8455 5.17369 8.12533 5.45351 8.12533 5.79869C8.12533 6.14386 7.8455 6.42369 7.50033 6.42369L1.66699 6.42369C1.32181 6.42369 1.04199 6.14386 1.04199 5.79869C1.04199 5.45351 1.32181 5.17369 1.66699 5.17369L7.50033 5.17369Z" fill="#787A7D"/>
<path d="M1.04199 14.132C1.04199 13.7868 1.32181 13.507 1.66699 13.507H3.33366C3.67884 13.507 3.95866 13.7868 3.95866 14.132C3.95866 14.4772 3.67884 14.757 3.33366 14.757H1.66699C1.32181 14.757 1.04199 14.4772 1.04199 14.132Z" fill="#787A7D"/>
<path d="M18.3337 5.17369C18.6788 5.17369 18.9587 5.45351 18.9587 5.79869C18.9587 6.14386 18.6788 6.42369 18.3337 6.42369H16.667C16.3218 6.42369 16.042 6.14386 16.042 5.79869C16.042 5.45351 16.3218 5.17369 16.667 5.17369H18.3337Z" fill="#787A7D"/>
</svg>
