<svg width="28" height="28" viewBox="0 0 28 28" fill="none" xmlns="http://www.w3.org/2000/svg">
<path fill-rule="evenodd" clip-rule="evenodd" d="M13.4166 3.20825C7.77874 3.20825 3.20831 7.77868 3.20831 13.4166C3.20831 19.0545 7.77874 23.6249 13.4166 23.6249C19.0546 23.6249 23.625 19.0545 23.625 13.4166C23.625 7.77868 19.0546 3.20825 13.4166 3.20825ZM1.45831 13.4166C1.45831 6.81218 6.81224 1.45825 13.4166 1.45825C20.0211 1.45825 25.375 6.81218 25.375 13.4166C25.375 20.021 20.0211 25.3749 13.4166 25.3749C6.81224 25.3749 1.45831 20.021 1.45831 13.4166ZM22.7146 22.7145C23.0563 22.3728 23.6103 22.3728 23.952 22.7145L26.2854 25.0479C26.6271 25.3896 26.6271 25.9436 26.2854 26.2853C25.9437 26.627 25.3896 26.627 25.0479 26.2853L22.7146 23.952C22.3729 23.6103 22.3729 23.0562 22.7146 22.7145Z" fill="#1B1919"/>
</svg>
