<svg width="33" height="28" viewBox="0 0 33 28" fill="none" xmlns="http://www.w3.org/2000/svg">
<g opacity="0.2">
<path d="M9.64101 16.2699L3.9496 9.69476L9.64101 3.11963C10.1009 2.5877 10.0473 1.77994 9.52022 1.31535C8.99316 0.851187 8.19321 0.905755 7.73245 1.43726L1.31297 8.85376C0.895678 9.3354 0.895678 10.0545 1.31297 10.5361L7.73251 17.9527C7.98336 18.2417 8.33435 18.39 8.68739 18.39C8.98305 18.39 9.27991 18.286 9.52022 18.0742C10.0473 17.6096 10.1013 16.8018 9.64101 16.2699Z" fill="#1B1919"/>
<path d="M22.7926 8.41606H2.267C1.5672 8.41606 1 8.98844 1 9.69476C1 10.401 1.5672 10.9735 2.267 10.9735H22.7926C26.4724 10.9735 29.466 13.9946 29.466 17.708C29.466 21.4214 26.4724 24.4426 22.7926 24.4426H3.95638C3.25658 24.4426 2.68938 25.015 2.68938 25.7213C2.68938 26.4276 3.25658 27 3.95638 27H22.7926C27.8691 27 32 22.8314 32 17.708C32 12.5847 27.8696 8.41606 22.7926 8.41606Z" fill="#1B1919"/>
<path d="M9.64101 16.2699L3.9496 9.69476L9.64101 3.11963C10.1009 2.5877 10.0473 1.77994 9.52022 1.31535C8.99316 0.851187 8.19321 0.905755 7.73245 1.43726L1.31297 8.85376C0.895678 9.3354 0.895678 10.0545 1.31297 10.5361L7.73251 17.9527C7.98336 18.2417 8.33435 18.39 8.68739 18.39C8.98305 18.39 9.27991 18.286 9.52022 18.0742C10.0473 17.6096 10.1013 16.8018 9.64101 16.2699Z" stroke="#1B1919"/>
<path d="M22.7926 8.41606H2.267C1.5672 8.41606 1 8.98844 1 9.69476C1 10.401 1.5672 10.9735 2.267 10.9735H22.7926C26.4724 10.9735 29.466 13.9946 29.466 17.708C29.466 21.4214 26.4724 24.4426 22.7926 24.4426H3.95638C3.25658 24.4426 2.68938 25.015 2.68938 25.7213C2.68938 26.4276 3.25658 27 3.95638 27H22.7926C27.8691 27 32 22.8314 32 17.708C32 12.5847 27.8696 8.41606 22.7926 8.41606Z" stroke="#1B1919"/>
</g>
</svg>
