<svg width="44" height="42" viewBox="0 0 44 42" fill="none" xmlns="http://www.w3.org/2000/svg">
<path d="M24.9267 20.2779C24.322 19.8649 24.1596 19.1617 24.5404 18.6036C24.9211 18.0511 25.6323 17.9451 26.2426 18.3581C31.3213 21.8182 36.4 25.284 41.4788 28.7497C42.705 29.5869 43.2594 31.1663 42.8842 32.6731C42.5203 34.1297 41.2716 35.2515 39.8101 35.4356C39.5861 35.4635 39.3622 35.4803 39.1438 35.4803M24.9267 20.2779L24.785 20.4839M24.9267 20.2779C25.5275 20.6911 26.1304 21.1021 26.7342 21.5136C27.0927 21.758 27.4516 22.0026 27.8104 22.248C29.8487 23.6376 31.8883 25.0287 33.9279 26.4197C35.9675 27.8107 38.0071 29.2018 40.0453 30.5914C40.6276 30.9877 40.8236 31.635 40.5548 32.2824C40.3029 32.8908 39.8605 33.1531 39.0766 33.1531H14.9709H14.9674C11.5641 33.1531 8.15514 33.1531 4.75183 33.1475C4.07429 33.1475 3.59273 32.7736 3.40235 32.1429C3.21757 31.5346 3.42475 30.9709 3.9791 30.5914M24.9267 20.2779L24.7857 20.4844C24.7855 20.4842 24.7853 20.4841 24.785 20.4839M24.785 20.4839C24.0829 20.0039 23.8649 19.15 24.3338 18.4627L24.3345 18.4618C24.804 17.7805 25.6752 17.6723 26.3827 18.151L26.3834 18.1515C31.4611 21.611 36.5388 25.076 41.6165 28.5411L41.6197 28.5432L41.6197 28.5432C42.9395 29.4442 43.5251 31.1339 43.1268 32.7335L43.1268 32.7337C42.7384 34.2879 41.4077 35.4863 39.8414 35.6837L39.841 35.6837C39.6093 35.7126 39.3748 35.7303 39.144 35.7303M24.785 20.4839C25.3861 20.8973 25.99 21.3089 26.5942 21.7207C26.9526 21.965 27.3112 22.2094 27.6693 22.4543L27.6696 22.4545C29.7078 23.8442 31.7474 25.2352 33.787 26.6262C35.8266 28.0173 37.8662 29.4083 39.9045 30.798L39.9047 30.7981C40.3901 31.1284 40.5468 31.6499 40.3239 32.1866L40.3239 32.1868C40.2137 32.4527 40.0716 32.6224 39.8882 32.7305C39.7003 32.8414 39.4431 32.9031 39.0766 32.9031H39.0295H38.9824H38.9353H38.8883H38.8412H38.7941H38.747H38.6999H38.6529H38.6058H38.5587H38.5116H38.4645H38.4174H38.3704H38.3233H38.2762H38.2291H38.182H38.135H38.0879H38.0408H37.9937H37.9466H37.8995H37.8525H37.8054H37.7583H37.7112H37.6641H37.6171H37.57H37.5229H37.4758H37.4287H37.3816H37.3346H37.2875H37.2404H37.1933H37.1462H37.0992H37.0521H37.005H36.9579H36.9108H36.8638H36.8167H36.7696H36.7225H36.6754H36.6283H36.5813H36.5342H36.4871H36.44H36.3929H36.3459H36.2988H36.2517H36.2046H36.1575H36.1105H36.0634H36.0163H35.9692H35.9221H35.875H35.828H35.7809H35.7338H35.6867H35.6396H35.5926H35.5455H35.4984H35.4513H35.4042H35.3571H35.3101H35.263H35.2159H35.1688H35.1217H35.0747H35.0276H34.9805H34.9334H34.8863H34.8392H34.7922H34.7451H34.698H34.6509H34.6038H34.5568H34.5097H34.4626H34.4155H34.3684H34.3214H34.2743H34.2272H34.1801H34.133H34.0859H34.0389H33.9918H33.9447H33.8976H33.8505H33.8035H33.7564H33.7093H33.6622H33.6151H33.5681H33.521H33.4739H33.4268H33.3797H33.3326H33.2856H33.2385H33.1914H33.1443H33.0972H33.0502H33.0031H32.956H32.9089H32.8618H32.8147H32.7677H32.7206H32.6735H32.6264H32.5793H32.5323H32.4852H32.4381H32.391H32.3439H32.2968H32.2498H32.2027H32.1556H32.1085H32.0614H32.0144H31.9673H31.9202H31.8731H31.826H31.779H31.7319H31.6848H31.6377H31.5906H31.5435H31.4965H31.4494H31.4023H31.3552H31.3081H31.2611H31.214H31.1669H31.1198H31.0727H31.0256H30.9786H30.9315H30.8844H30.8373H30.7902H30.7432H30.6961H30.649H30.6019H30.5548H30.5078H30.4607H30.4136H30.3665H30.3194H30.2723H30.2253H30.1782H30.1311H30.084H30.0369H29.9899H29.9428H29.8957H29.8486H29.8015H29.7544H29.7074H29.6603H29.6132H29.5661H29.519H29.472H29.4249H29.3778H29.3307H29.2836H29.2366H29.1895H29.1424H29.0953H29.0482H29.0011H28.9541H28.907H28.8599H28.8128H28.7657H28.7187H28.6716H28.6245H28.5774H28.5303H28.4832H28.4362H28.3891H28.342H28.2949H28.2478H28.2008H28.1537H28.1066H28.0595H28.0124H27.9654H27.9183H27.8712H27.8241H27.777H27.7299H27.6829H27.6358H27.5887H27.5416H27.4945H27.4475H27.4004H27.3533H27.3062H27.2591H27.212H27.165H27.1179H27.0708H27.0237H26.9766H26.9296H26.8825H26.8354H26.7883H26.7412H26.6942H26.6471H26.6H26.5529H26.5058H26.4587H26.4117H26.3646H26.3175H26.2704H26.2233H26.1763H26.1292H26.0821H26.035H25.9879H25.9408H25.8938H25.8467H25.7996H25.7525H25.7054H25.6584H25.6113H25.5642H25.5171H25.47H25.423H25.3759H25.3288H25.2817H25.2346H25.1875H25.1405H25.0934H25.0463H24.9992H24.9521H24.9051H24.858H24.8109H24.7638H24.7167H24.6696H24.6226H24.5755H24.5284H24.4813H24.4342H24.3872H24.3401H24.293H24.2459H24.1988H24.1518H24.1047H24.0576H24.0105H23.9634H23.9163H23.8693H23.8222H23.7751H23.728H23.6809H23.6339H23.5868H23.5397H23.4926H23.4455H23.3984H23.3514H23.3043H23.2572H23.2101H23.163H23.116H23.0689H23.0218H22.9747H22.9276H22.8806H22.8335H22.7864H22.7393H22.6922H22.6451H22.5981H22.551H22.5039H22.4568H22.4097H22.3627H22.3156H22.2685H22.2214H22.1743H22.1272H22.0802H22.0331H21.986H21.9389H21.8918H21.8448H21.7977H21.7506H21.7035H21.6564H21.6094H21.5623H21.5152H21.4681H21.421H21.3739H21.3269H21.2798H21.2327H21.1856H21.1385H21.0915H21.0444H20.9973H20.9502H20.9031H20.856H20.809H20.7619H20.7148H20.6677H20.6206H20.5736H20.5265H20.4794H20.4323H20.3852H20.3382H20.2911H20.244H20.1969H20.1498H20.1027H20.0557H20.0086H19.9615H19.9144H19.8673H19.8203H19.7732H19.7261H19.679H19.6319H19.5848H19.5378H19.4907H19.4436H19.3965H19.3494H19.3024H19.2553H19.2082H19.1611H19.114H19.0669H19.0199H18.9728H18.9257H18.8786H18.8315H18.7845H18.7374H18.6903H18.6432H18.5961H18.5491H18.502H18.4549H18.4078H18.3607H18.3136H18.2666H18.2195H18.1724H18.1253H18.0782H18.0312H17.9841H17.937H17.8899H17.8428H17.7957H17.7487H17.7016H17.6545H17.6074H17.5603H17.5133H17.4662H17.4191H17.372H17.3249H17.2779H17.2308H17.1837H17.1366H17.0895H17.0424H16.9954H16.9483H16.9012H16.8541H16.807H16.76H16.7129H16.6658H16.6187H16.5716H16.5245H16.4775H16.4304H16.3833H16.3362H16.2891H16.2421H16.195H16.1479H16.1008H16.0537H16.0067H15.9596H15.9125H15.8654H15.8183H15.7712H15.7242H15.6771H15.63H15.5829H15.5358H15.4888H15.4417H15.3946H15.3475H15.3004H15.2533H15.2063H15.1592H15.1121H15.065H15.0179H14.9709H14.9674C11.564 32.9031 8.15531 32.9031 4.75224 32.8975H4.75183C4.46038 32.8975 4.22508 32.8177 4.04477 32.682C3.8641 32.5459 3.72374 32.3425 3.64169 32.0707L3.64156 32.0702C3.56343 31.813 3.57081 31.5764 3.64797 31.3682C3.72537 31.1594 3.87909 30.9629 4.11999 30.7979M39.144 35.7303L39.1438 35.4803M39.144 35.7303C39.1439 35.7303 39.1439 35.7303 39.1438 35.7303V35.4803M39.144 35.7303C33.4324 35.7359 27.7208 35.7359 22.0094 35.7359H21.9759H21.9425H21.909H21.8755H21.8421H21.8086H21.7751H21.7417H21.7082H21.6747H21.6413H21.6078H21.5743H21.5409H21.5074H21.4739H21.4405H21.407H21.3735H21.3401H21.3066H21.2732H21.2397H21.2062H21.1728H21.1393H21.1058H21.0724H21.0389H21.0054H20.972H20.9385H20.905H20.8716H20.8381H20.8046H20.7712H20.7377H20.7042H20.6708H20.6373H20.6038H20.5704H20.5369H20.5034H20.47H20.4365H20.403H20.3696H20.3361H20.3026H20.2692H20.2357H20.2023H20.1688H20.1353H20.1019H20.0684H20.0349H20.0015H19.968H19.9345H19.9011H19.8676H19.8341H19.8007H19.7672H19.7337H19.7003H19.6668H19.6333H19.5999H19.5664H19.5329H19.4995H19.466H19.4325H19.3991H19.3656H19.3321H19.2987H19.2652H19.2318H19.1983H19.1648H19.1314H19.0979H19.0644H19.031H18.9975H18.964H18.9306H18.8971H18.8636H18.8302H18.7967H18.7632H18.7298H18.6963H18.6628H18.6294H18.5959H18.5624H18.529H18.4955H18.462H18.4286H18.3951H18.3616H18.3282H18.2947H18.2612H18.2278H18.1943H18.1609H18.1274H18.0939H18.0605H18.027H17.9935H17.9601H17.9266H17.8931H17.8597H17.8262H17.7927H17.7593H17.7258H17.6923H17.6589H17.6254H17.5919H17.5585H17.525H17.4915H17.4581H17.4246H17.3911H17.3577H17.3242H17.2907H17.2573H17.2238H17.1903H17.1569H17.1234H17.09H17.0565H17.023H16.9896H16.9561H16.9226H16.8892H16.8557H16.8222H16.7888H16.7553H16.7218H16.6884H16.6549H16.6214H16.588H16.5545H16.521H16.4876H16.4541H16.4206H16.3872H16.3537H16.3202H16.2868H16.2533H16.2198H16.1864H16.1529H16.1195H16.086H16.0525H16.0191H15.9856H15.9521H15.9187H15.8852H15.8517H15.8183H15.7848H15.7513H15.7179H15.6844H15.6509H15.6175H15.584H15.5505H15.5171H15.4836H15.4501H15.4167H15.3832H15.3497H15.3163H15.2828H15.2493H15.2159H15.1824H15.1489H15.1155H15.082H15.0486H15.0151H14.9816H14.9482H14.9147H14.8812H14.8478H14.8143H14.7808H14.7474H14.7139H14.6804H14.647H14.6135H14.58H14.5466H14.5131H14.4796H14.4462H14.4127H14.3792H14.3458H14.3123H14.2788H14.2454H14.2119H14.1784H14.145H14.1115H14.0781H14.0446H14.0111H13.9777H13.9442H13.9107H13.8773H13.8438H13.8103H13.7769H13.7434H13.7099H13.6765H13.643H13.6095H13.5761H13.5426H13.5091H13.4757H13.4422H13.4087H13.3753H13.3418H13.3083H13.2749H13.2414H13.2079H13.1745H13.141H13.1075H13.0741H13.0406H13.0072H12.9737H12.9402H12.9068H12.8733H12.8398H12.8064H12.7729H12.7394H12.706H12.6725H12.639H12.6056H12.5721H12.5386H12.5052H12.4717H12.4382H12.4048H12.3713H12.3378H12.3044H12.2709H12.2374H12.204H12.1705H12.137H12.1036H12.0701H12.0366H12.0032H11.9697H11.9363H11.9028H11.8693H11.8359H11.8024H11.7689H11.7355H11.702H11.6685H11.6351H11.6016H11.5681H11.5347H11.5012H11.4677H11.4343H11.4008H11.3673H11.3339H11.3004H11.2669H11.2335H11.2H11.1665H11.1331H11.0996H11.0661H11.0327H10.9992H10.9658H10.9323H10.8988H10.8654H10.8319H10.7984H10.765H10.7315H10.698H10.6646H10.6311H10.5976H10.5642H10.5307H10.4972H10.4638H10.4303H10.3968H10.3634H10.3299H10.2964H10.263H10.2295H10.196H10.1626H10.1291H10.0956H10.0622H10.0287H9.99525H9.96178H9.92832H9.89485H9.86139H9.82792H9.79446H9.76099H9.72752H9.69406H9.66059H9.62713H9.59366H9.5602H9.52673H9.49327H9.4598H9.42633H9.39287H9.3594H9.32594H9.29247H9.25901H9.22554H9.19207H9.15861H9.12514H9.09168H9.05821H9.02475H8.99128H8.95782H8.92435H8.89088H8.85742H8.82395H8.79049H8.75702H8.72356H8.69009H8.65663H8.62316H8.58969H8.55623H8.52276H8.4893H8.45583H8.42237H8.3889H8.35543H8.32197H8.2885H8.25504H8.22157H8.18811H8.15464H8.12118H8.08771H8.05424H8.02078H7.98731H7.95385H7.92038H7.88692H7.85345H7.81999H7.78652H7.75305H7.71959H7.68612H7.65266H7.61919H7.58573H7.55226H7.5188H7.48533H7.45186H7.4184H7.38493H7.35147H7.318H7.28454H7.25107H7.21761H7.18414H7.15067H7.11721H7.08374H7.05028H7.01681H6.98335H6.94988H6.91641H6.88295H6.84948H6.81602H6.78255H6.74909H6.71562H6.68216H6.64869H6.61522H6.58176H6.54829H6.51483H6.48136H6.4479H6.41443H6.38097H6.3475H6.31403H6.28057H6.2471H6.21364H6.18017H6.14671H6.11324H6.07977H6.04631H6.01284H5.97938H5.94591H5.91245H5.87898H5.84552H5.81205H5.77858H5.74512H5.71165H5.67819H5.64472H5.61126H5.57779H5.54433H5.51086H5.47739H5.44393H5.41046H5.377H5.34353H5.31007H5.2766H5.24314H5.20967H5.1762H5.14274H5.10927H5.07581H5.04234H5.00888H4.97541H4.94195H4.90848H4.87501C2.84738 35.7359 1.28143 34.5094 0.845964 32.5777L1.08977 32.5224C1.49853 34.3362 2.95999 35.4859 4.87501 35.4859H22.0094C27.7209 35.4859 33.4323 35.4859 39.1438 35.4803M25.4587 10.3997C25.1507 9.02123 24.2996 8.07806 22.9165 7.69856C20.7495 7.1014 18.6329 8.65847 18.5097 10.902L18.4593 11.3708L18.7013 11.4337C18.7013 11.4335 18.7014 11.4332 18.7015 11.433C18.7388 11.2892 18.7473 11.1312 18.7539 11.0067C18.7556 10.9754 18.7572 10.9462 18.7591 10.9199L18.7591 10.9199L18.7593 10.9157C18.874 8.82773 20.8404 7.38575 22.8501 7.93957L22.8504 7.93965C24.1397 8.29343 24.9257 9.1614 25.2146 10.4538M25.4587 10.3997L25.2145 10.4536C25.2146 10.4537 25.2146 10.4537 25.2146 10.4538M25.4587 10.3997L25.2147 10.4542C25.2147 10.4541 25.2146 10.454 25.2146 10.4538M25.4587 10.3997C25.7554 11.7447 25.3579 12.8776 24.2324 13.7259C23.9087 13.9706 23.5885 14.2201 23.2684 14.4694C22.603 14.9878 21.9379 15.5058 21.2423 15.9806L2.45531 28.504M25.2146 10.4538C25.3545 11.0881 25.328 11.6582 25.144 12.1635C24.96 12.6687 24.6124 13.1265 24.0819 13.5263L24.0816 13.5265C23.7516 13.776 23.4282 14.0279 23.1066 14.2785C22.4448 14.794 21.7906 15.3037 21.1013 15.7741L21.101 15.7743C16.6194 18.8435 12.1321 21.9038 7.64499 24.964C5.91495 26.1438 4.18494 27.3237 2.45531 28.504M17.1715 12.2079C16.6227 12.141 16.1915 11.661 16.1747 11.1029M17.1715 12.2079L17.1411 12.4561C16.467 12.3738 15.9453 11.7891 15.9249 11.1104M17.1715 12.2079L17.1412 12.4561L17.1715 12.2079ZM16.1747 11.1029C16.0908 8.36826 18.1906 5.81221 20.9063 5.34342C24.35 4.75184 27.4297 7.02885 27.8328 10.5058M16.1747 11.1029L15.9249 11.1106C15.9249 11.1105 15.9249 11.1105 15.9249 11.1104M16.1747 11.1029L15.9249 11.1104M27.8328 10.5058C28.0624 12.4702 27.4073 14.1166 25.873 15.3835C23.9656 16.9554 21.9237 18.3415 19.8809 19.7281C19.6029 19.9168 19.3249 20.1055 19.0473 20.2947M27.8328 10.5058L28.0812 10.477M27.8328 10.5058L28.0812 10.4767C28.0812 10.4768 28.0812 10.4769 28.0812 10.477M19.0473 20.2947C14.0245 23.7325 9.00182 27.1647 3.9791 30.5914M19.0473 20.2947L19.188 20.5013C19.1881 20.5012 19.1882 20.5012 19.1882 20.5011M19.0473 20.2947L19.1885 20.501C19.1884 20.501 19.1883 20.5011 19.1882 20.5011M3.9791 30.5914L4.11999 30.7979M3.9791 30.5914L4.12032 30.7977C4.12021 30.7978 4.1201 30.7979 4.11999 30.7979M4.11999 30.7979C9.14273 27.3713 14.1655 23.939 19.1882 20.5011M19.1882 20.5011C19.4654 20.3123 19.7431 20.1238 20.021 19.9352C22.0628 18.5493 24.115 17.1563 26.032 15.5764L26.0322 15.5762C27.6321 14.2552 28.3205 12.5253 28.0812 10.477M28.0812 10.477C27.6613 6.85598 24.4474 4.48144 20.864 5.09702L20.8638 5.09706C18.0267 5.5868 15.8371 8.24995 15.9249 11.1104M2.45531 28.504C1.13354 29.4041 0.492818 31.02 0.845888 32.5774L2.45531 28.504Z" fill="#C7C7C7" stroke="#C7C7C7" stroke-width="0.5"/>
</svg>
